<?xml version="1.0" encoding="UTF-8" standalone="no"?>
<!-- Created with Inkscape (http://www.inkscape.org/) -->

<svg
   xmlns:dc="http://purl.org/dc/elements/1.1/"
   xmlns:cc="http://creativecommons.org/ns#"
   xmlns:rdf="http://www.w3.org/1999/02/22-rdf-syntax-ns#"
   xmlns:svg="http://www.w3.org/2000/svg"
   xmlns="http://www.w3.org/2000/svg"
   xmlns:sodipodi="http://sodipodi.sourceforge.net/DTD/sodipodi-0.dtd"
   xmlns:inkscape="http://www.inkscape.org/namespaces/inkscape"
   id="svg4196"
   version="1.1"
   inkscape:version="0.91 r13725"
   width="712.5"
   height="425.625"
   viewBox="0 0 712.5 425.625"
   sodipodi:docname="StylisedLion.svg">
  <metadata
     id="metadata4202">
    <rdf:RDF>
      <cc:Work
         rdf:about="">
        <dc:format>image/svg+xml</dc:format>
        <dc:type
           rdf:resource="http://purl.org/dc/dcmitype/StillImage" />
        <dc:title></dc:title>
      </cc:Work>
    </rdf:RDF>
  </metadata>
  <defs
     id="defs4200" />
  <sodipodi:namedview
     pagecolor="#ffffff"
     bordercolor="#666666"
     borderopacity="1"
     objecttolerance="10"
     gridtolerance="10"
     guidetolerance="10"
     inkscape:pageopacity="0"
     inkscape:pageshadow="2"
     inkscape:window-width="1600"
     inkscape:window-height="837"
     id="namedview4198"
     showgrid="false"
     inkscape:zoom="1.4582456"
     inkscape:cx="356.25"
     inkscape:cy="212.8125"
     inkscape:window-x="-8"
     inkscape:window-y="-8"
     inkscape:window-maximized="1"
     inkscape:current-layer="svg4196" />
  <path
     style="fill:#000000"
     d="m 133.998,375.29909 c -0.65004,-1.70975 -0.64803,-3.94755 0.007,-6.99861 1.39939,-6.52509 0.63826,-7.8744 -3.1286,-5.54635 -2.61112,1.61376 -4.20501,1.78621 -12.96172,1.40241 -7.39993,-0.32434 -11.03101,-0.0731 -14.02735,0.97053 -4.753681,1.65571 -7.324127,1.81736 -7.324127,0.46058 0,-1.93736 3.836407,-8.43822 5.647017,-9.56897 6.04965,-3.77807 0.43826,-8.63417 -9.212715,-7.97268 -11.946153,0.81882 -13.367377,-1.39717 -5.340552,-8.32703 8.712618,-7.52193 7.402518,-9.51169 -6.552334,-9.95161 -11.258697,-0.35491 -5.81219,-12.89236 5.600427,-12.89236 0.806741,0 1.860753,-1.03617 2.342248,-2.30259 0.998768,-2.62696 9.211237,-7.6913 13.932106,-8.59143 7.06785,-1.34763 16.44736,4.8316 18.94051,12.47806 2.02495,6.21045 8.04961,7.38271 18.23678,3.54844 9.37162,-3.52731 11.22891,-5.57054 13.4972,-14.84855 0.61312,-2.5079 2.36224,-7.03103 3.88692,-10.05139 3.35795,-6.65208 3.39207,-7.23075 0.49129,-8.33362 -1.25447,-0.47695 -3.23561,-2.15855 -4.40252,-3.7369 l -2.12168,-2.8697 -0.9881,3.05696 c -1.29597,4.0094 -3.65809,3.99458 -4.26936,-0.0268 -0.67741,-4.45651 -2.30857,-3.28092 -2.32758,1.67751 -0.0142,3.70782 -0.28271,4.25649 -2.21699,4.53031 -1.99469,0.28239 -2.14337,0.05 -1.58739,-2.48132 0.59368,-2.70304 -4.42501,-16.17951 -5.59107,-15.01345 -0.25106,0.25105 -0.67248,2.7256 -0.93651,5.499 -0.69576,7.30843 -4.594,9.32091 -6.28621,3.24528 -0.43062,-1.54609 -2.42089,-4.66635 -4.42281,-6.93392 l -3.63985,-4.12286 -2.55972,2.01348 c -3.69027,2.90277 -4.43785,2.55313 -3.71312,-1.73652 0.6674,-3.9503 -0.26955,-4.843 -2.39505,-2.28193 -1.30445,1.57176 -5.84459,4.15693 -7.30051,4.15693 -0.48533,0 -1.17197,-1.16015 -1.52585,-2.57812 -0.35388,-1.41797 -1.21936,-3.21764 -1.923296,-3.99927 -0.703931,-0.78162 -1.409344,-3.91235 -1.567585,-6.95717 -0.278259,-5.35431 -2.626968,-9.02807 -2.635068,-4.12169 -0.0037,2.25498 -7.475534,9.21875 -9.891311,9.21875 -1.536071,0 -2.236277,-1.93937 -1.35393,-3.75 0.652712,-1.3394 1.959448,-13.125 1.455243,-13.125 -0.132442,0 -1.582489,1.28218 -3.222325,2.84931 -3.668408,3.50572 -4.986806,2.88931 -4.210029,-1.9684 0.400536,-2.50479 0.242871,-3.69339 -0.489923,-3.69339 -0.594288,0 -1.492284,-1.08301 -1.995548,-2.40669 -0.714841,-1.88018 -1.342511,-2.27102 -2.869054,-1.78651 -1.302302,0.41333 -2.630969,-9.4e-4 -3.983648,-1.2421 -1.116289,-1.02424 -3.429127,-2.15852 -5.139641,-2.5206 -1.710514,-0.36207 -4.201871,-1.22478 -5.53635,-1.91711 -1.334478,-0.69233 -5.355924,-1.78235 -8.936546,-2.42224 -8.334717,-1.48949 -8.714356,-8.30167 -0.463954,-8.32509 2.111977,-0.006 2.111977,1.51255 0,2.69821 -1.904753,1.06932 -1.169282,1.44946 4.6875,2.42282 2.656906,0.44156 3.515625,0.2659 3.515625,-0.71916 0,-1.45798 -2.920477,-4.40653 -4.364576,-4.40653 -0.514628,0 -0.763122,-1.17577 -0.552207,-2.61282 0.29721,-2.02501 -0.108409,-2.84804 -1.802993,-3.65838 -9.464339,-4.52581 -15.356734,-6.9305 -21.405224,-8.73549 -9.617786,-2.87016 -11.25,-3.54836 -11.25,-4.67449 0,-1.40738 5.458448,-4.58574 10.049499,-5.85165 4.212902,-1.16165 6.240921,-3.52967 3.022873,-3.52967 -1.072487,0 -2.214651,-0.89881 -2.680488,-2.10938 -1.116627,-2.90175 -5.562009,-5.97358 -10.489677,-7.24851 -7.616717,-1.97066 -7.527959,-1.91647 -7.222337,-4.41007 0.343001,-2.79857 5.430782,-4.94546 11.773255,-4.96792 6.176078,-0.0219 4.697563,1.63526 -2.109375,2.36422 -5.913895,0.63333 -7.804332,1.84964 -4.453125,2.86516 0.902344,0.27344 4.285331,1.73677 7.517751,3.25183 7.190626,3.37032 6.569685,3.41819 7.316762,-0.56407 0.455696,-2.42907 0.209703,-3.77499 -0.917622,-5.02068 -1.774156,-1.96041 -1.150648,-4.47097 1.30386,-5.25001 C 33.932088,173.8933 26.413451,161.25 22.837464,161.25 c -2.899837,0 -6.04164,-2.26171 -5.771011,-4.15442 0.36308,-2.53927 13.089704,-2.65682 18.954106,-0.17506 2.991131,1.26582 4.274238,1.35883 6.880401,0.49871 14.210187,-4.68977 31.111605,6.31665 34.902387,22.72891 2.802084,12.13167 4.93789,13.81073 27.196653,21.38067 6.44531,2.19196 14.13182,4.9947 17.08113,6.2283 2.9493,1.23359 6.83179,2.24289 8.62775,2.24289 1.79597,0 4.32027,0.48063 5.60955,1.06807 5.18631,2.36304 18.25034,-1.87977 20.1874,-6.55625 0.62971,-1.52026 2.1657,-3.72308 3.4133,-4.89514 4.55387,-4.27814 1.07079,-16.9367 -5.03131,-18.28532 -1.39924,-0.30924 -3.89787,-0.97325 -5.55252,-1.47558 -3.60773,-1.09526 -13.29802,1.5549 -14.13293,3.86517 -0.28529,0.78941 -1.73062,2.84096 -3.21184,4.55898 -1.48122,1.71804 -2.9411,4.36353 -3.24417,5.87889 -0.99131,4.95659 -5.31785,2.28063 -6.58903,-4.07532 -0.82261,-4.11303 -1.8957,-3.91409 -3.9511,0.73245 -1.54245,3.48697 -1.68965,4.63636 -0.78027,6.09251 0.88191,1.41215 0.8596,2.04954 -0.10467,2.99002 -1.89419,1.84746 -6.16249,-3.84643 -7.55803,-10.08241 -0.63126,-2.82072 -1.45528,-5.12857 -1.83118,-5.12857 -3.76703,0 -5.51231,-11.76086 -2.86522,-19.3076 3.5517,-10.12572 3.55498,-10.07727 -0.63814,-9.41295 -27.965656,4.43067 -38.142741,-2.27542 -46.800696,-30.83882 -5.438046,-17.94061 0.16003,-21.85406 10.412643,-7.27917 14.93602,21.23274 24.975331,27.36078 44.965493,27.44717 8.51687,0.0368 22.40994,5.30306 30.71567,11.64297 5.63492,4.30123 6.27611,4.23893 6.28766,-0.61098 0.0418,-17.53854 -21.92805,-31.92369 -27.69094,-18.13115 -2.83651,6.78872 -7.2789,7.02186 -10.53734,0.55303 -2.67853,-5.31758 -3.96871,-5.79057 -3.96871,-1.45495 0,5.52878 -6.21577,4.95482 -8.394281,-0.77513 -0.445828,-1.17261 -2.770716,-4.01045 -5.166413,-6.30629 -5.234085,-5.01594 -5.992417,-7.60212 -6.56856,-22.40113 -0.614296,-15.779061 0.01906,-17.140143 8.410504,-18.074318 3.609375,-0.401812 9.58571,-1.412833 13.28074,-2.246713 4.26303,-0.962063 8.76966,-1.330129 12.33158,-1.007146 l 5.61335,0.509001 1.5817,-4.141627 c 2.15861,-5.652236 5.16505,-7.023742 17.33668,-7.908823 15.74645,-1.145029 18.86123,-2.424953 28.19537,-11.586029 8.90285,-8.737779 9.62787,-8.484002 9.15836,3.205655 -0.21428,5.334968 -0.006,9.375 0.48339,9.375 1.43852,0 7.17058,-6.58428 8.86521,-10.183252 2.7969,-5.939959 7.03452,-2.616533 8.76923,6.87744 0.25054,1.371182 1.41104,2.033602 4.48076,2.557643 4.6834,0.799516 5.34035,1.520877 6.21358,6.822742 0.82529,5.01081 1.5628,5.754868 7.11447,7.177716 7.84638,2.010969 15.76848,12.143841 15.7891,20.195291 0.015,5.86094 6.66664,7.14775 11.25523,2.17742 4.26477,-4.61958 4.75934,-4.63118 7.84125,-0.18398 6.48675,9.36038 0.64819,23.00922 -9.02348,21.09423 -3.01466,-0.59689 -3.00067,-0.56852 1.94268,3.94077 2.73856,2.4981 6.08631,6.47153 7.43943,8.82986 6.25246,10.89724 11.17527,14.2421 19.264,13.0891 15.73616,-2.2431 19.6227,-0.11328 11.20799,6.14194 -6.19111,4.60228 -6.79687,5.158 -6.79687,6.23538 0,1.41146 6.19323,3.73418 9.64398,3.61689 1.65675,-0.0563 5.54352,0.56871 8.63727,1.38894 16.58548,4.3972 88.7589,5.06996 112.5,1.04865 7.73437,-1.31007 15.43932,-2.38359 17.1221,-2.3856 1.68277,-0.002 3.79215,-0.39037 4.6875,-0.86299 0.89535,-0.47263 6.90134,-1.34358 13.34665,-1.93544 11.86692,-1.08972 16.66805,-2.12245 28.69354,-6.17195 5.36328,-1.80605 9.2019,-2.32492 19.6875,-2.6612 7.16387,-0.22973 16.82209,-0.70952 21.46271,-1.0662 8.19963,-0.6302 8.75466,-0.54082 19.6875,3.17027 48.46283,16.45045 93.26762,16.72327 111.7575,0.68051 9.81814,-8.51871 13.86022,-29.15463 6.60187,-33.70432 -0.90234,-0.56561 -1.65402,-1.66519 -1.67039,-2.4435 -0.25911,-12.31837 -41.26969,-24.0638 -76.84523,-22.00847 -6.96094,0.40216 -15.1875,0.84885 -18.28125,0.99264 -5.24415,0.24375 -10.15094,0.95951 -22.96875,3.35044 -2.83594,0.529 -6.84375,1.03062 -8.90625,1.11473 -2.0625,0.0841 -4.80469,0.83588 -6.09375,1.67062 -1.28906,0.83474 -3.64089,1.75472 -5.2263,2.0444 -1.58541,0.28967 -7.90597,3.28853 -14.04569,6.66413 -15.8558,8.71746 -21.34794,10.71363 -32.57239,11.83874 -5.25903,0.52715 -10.30015,1.18161 -11.20249,1.45436 -5.93442,1.79376 -6.69571,-2.09961 -1.17188,-5.99316 9.72743,-6.85653 2.52938,-6.20983 -10.01745,0.9 -3.4822,1.97324 -7.34726,3.58771 -8.589,3.58771 -1.24175,0 -2.7829,0.63281 -3.4248,1.40625 -0.6419,0.77344 -2.56709,1.40625 -4.27822,1.40625 -1.71111,0 -3.39527,0.45976 -3.74256,1.0217 -0.37404,0.60519 -1.88094,0.78728 -3.69656,0.44667 -2.26363,-0.42466 -3.20844,-0.20154 -3.61321,0.8533 -0.34779,0.90632 -1.75805,1.42833 -3.85878,1.42833 -1.83223,0 -3.31067,0.47216 -3.31067,1.05732 0,0.70318 -1.21936,0.86233 -3.64054,0.47517 -2.71131,-0.43355 -3.95604,-0.20198 -4.87664,0.90726 -0.89811,1.08217 -2.17026,1.34002 -4.65269,0.94307 -1.87913,-0.30049 -3.70495,-0.258 -4.05737,0.0944 -0.95079,0.9508 -44.85813,1.10695 -46.67335,0.16599 -0.85626,-0.44386 -4.65313,-1.01702 -8.4375,-1.27368 -10.86877,-0.73716 -13.49944,-1.14339 -15.89159,-2.454 -1.23149,-0.67471 -3.18075,-1.11346 -4.33169,-0.975 -1.15094,0.13846 -3.03777,-0.41027 -4.19297,-1.21941 -1.1552,-0.80912 -2.915,-1.47114 -3.91067,-1.47114 -1.64557,0 -4.35946,-1.1207 -16.22754,-6.70113 -2.15809,-1.01474 -5.48563,-3.08617 -7.39453,-4.60318 -1.90891,-1.51701 -4.04554,-2.75819 -4.74808,-2.75819 -0.70254,0 -1.27734,-0.61875 -1.27734,-1.375 0,-0.75625 -1.50585,-2.88086 -3.34634,-4.72135 -25.91296,-25.912947 -4.11175,-66.005423 41.10847,-75.598604 2.69176,-0.57104 6.96014,-2.079052 9.48527,-3.351138 2.52514,-1.272085 5.83206,-2.469927 7.34872,-2.661871 1.51666,-0.191945 4.34745,-1.785359 6.29064,-3.540921 8.63371,-7.800032 20.51988,-12.805312 30.45527,-12.824743 3.12908,-0.0061 8.00953,-0.63119 10.84547,-1.389045 7.7469,-2.070223 10.22901,-0.637257 6.96587,4.02152 -3.8018,5.427826 -0.80781,5.138949 5.69038,-0.54904 12.30535,-10.771115 15.18093,-11.556942 38.67449,-10.568851 9.68666,0.407401 5.65088,10.371543 -4.20081,10.371543 -1.65366,0 -4.01348,1.632498 -3.99779,2.765625 0.004,0.283594 3.9226,0.552924 8.70814,0.598512 9.95374,0.09482 19.90887,2.650745 25.08959,6.441611 1.77451,1.298454 5.01935,3.522618 7.21075,4.942587 8.71283,5.645661 4.09002,7.015693 -23.4375,6.946011 -3.99609,-0.01012 -7.26562,0.110957 -7.26562,0.269051 0,0.716438 7.60543,5.224103 8.81422,5.224103 1.78976,0 7.12328,4.527288 7.12328,6.046503 0,1.312624 -6.54261,2.35906 -15,2.399127 -2.83594,0.01343 -8.10938,0.653417 -11.71875,1.422184 -3.60938,0.768766 -9.44419,1.668934 -12.96626,2.000375 -6.07557,0.571736 -9.92667,0.249609 -36.81577,-3.079468 -21.14949,-2.618471 -50.55642,-1.982187 -55.1922,1.194206 -1.01706,0.69689 -2.70456,1.280491 -3.75,1.296888 -1.04542,0.0164 -2.71969,0.649212 -3.72058,1.40625 -1.00089,0.75704 -3.13966,1.376435 -4.75281,1.376435 -1.9601,0 -3.60898,0.777438 -4.97086,2.34375 -1.17038,1.346047 -3.04809,2.34375 -4.41103,2.34375 -1.66874,0 -2.63764,0.695687 -3.26424,2.34375 -0.62574,1.645832 -1.59592,2.34375 -3.25805,2.34375 -1.45368,0 -2.36695,0.529859 -2.36695,1.373265 0,0.755296 -0.78363,1.792651 -1.7414,2.305233 -1.23968,0.663459 -1.92063,2.457027 -2.36352,6.22532 -0.34218,2.911344 -1.07817,6.145473 -1.63556,7.186954 -0.67633,1.263749 -0.71053,2.556249 -0.1028,3.88579 0.50084,1.095704 1.9062,4.259438 3.123,7.030528 4.90535,11.17113 20.53646,20.45511 41.37313,24.57324 41.53994,8.2099 75.26121,4.38568 116.73778,-13.23887 5.7999,-2.46454 6.27735,-4.19458 1.40625,-5.09555 -4.24394,-0.78498 -12.95701,-5.59512 -13.71554,-7.571804 -0.51743,-1.348406 -0.0487,-1.646268 5.95085,-3.782053 0.75678,-0.269409 4.4494,-0.879497 8.20585,-1.355772 3.75645,-0.476271 8.07336,-1.50896 9.59312,-2.294864 C 456.16343,90.643012 459.72068,90 462.54866,90 c 2.82798,0 6.3294,-0.458212 7.78093,-1.018249 l 2.63916,-1.018249 -3.04688,-2.56565 c -9.27286,-7.808313 16.76758,-9.461561 37.45289,-2.377797 18.08071,6.191809 17.54771,6.127612 57.93774,6.978268 47.37358,0.997736 62.22342,3.532012 80.46214,13.731687 6.18331,3.4579 20.78786,17.11019 20.78786,19.43242 0,0.69699 1.26562,2.85983 2.8125,4.80632 1.54687,1.94649 2.8125,4.11387 2.8125,4.81641 0,2.09246 1.62968,1.50206 8.11918,-2.94141 5.6584,-3.8744 6.63177,-4.21875 11.92493,-4.21875 3.37456,0 7.83167,-0.75591 10.75284,-1.82362 4.53532,-1.65772 4.92828,-1.67905 4.31932,-0.23438 -0.36843,0.87409 -0.87694,2.5447 -1.13002,3.71248 -0.25307,1.16778 -0.83163,2.35283 -1.28569,2.63345 -0.45406,0.28063 -0.82556,1.79952 -0.82556,3.37534 0,2.08885 -0.90886,3.69758 -3.35457,5.93776 -3.79667,3.47762 -3.0064,4.88765 1.64956,2.9432 8.45841,-3.53245 9.20501,-3.55396 9.20501,-0.26514 0,1.64516 -0.68814,3.97367 -1.5292,5.17445 -0.84106,1.20078 -2.01085,4.35218 -2.59952,7.0031 -1.6865,7.59458 -13.47881,10.79278 -20.72789,5.62163 -5.31338,-3.79032 -9.06213,-3.3304 -10.73702,1.31728 -0.79069,2.1941 -2.38684,4.64381 -3.547,5.44378 -1.16015,0.79997 -2.10937,2.00437 -2.10937,2.67644 0,1.5263 -5.52572,7.45525 -7.73438,8.2988 -0.90234,0.34462 -1.64062,1.24421 -1.64062,1.99908 0,0.75488 -0.8442,1.64044 -1.87599,1.96792 -1.03181,0.32748 -2.2836,1.35703 -2.78179,2.28789 -0.49818,0.93086 -2.92351,2.21472 -5.38962,2.85302 -4.74108,1.22713 -4.33728,1.91686 1.91087,3.26396 4.03154,0.86921 2.57446,2.57663 -4.59615,5.38581 -7.44057,2.91494 -13.80446,3.29094 -20.63395,1.21914 -6.0664,-1.8403 -5.91814,-1.89182 -5.09235,1.76965 1.19479,5.29752 0.12457,5.92084 -6.93575,4.03953 -3.67657,-0.97966 -7.53215,-1.40948 -9.65907,-1.07678 -1.94697,0.30456 -5.43839,0.052 -7.7587,-0.56118 -12.54883,-3.31637 -17.00496,-2.04326 -12.40486,3.54403 1.92424,2.33719 4.34236,5.97757 5.37361,8.08974 3.77001,7.72158 18.04964,10.48619 24.84375,4.80987 6.68321,-5.58367 8.82998,-3.09638 4.17831,4.84109 -2.97605,5.07823 -8.012,7.81516 -14.37994,7.81516 l -4.65133,0 3.59866,3.63481 c 1.97926,1.99914 4.45312,5.3097 5.49747,7.35679 4.70663,9.22577 16.92858,9.61424 25.39386,0.80714 3.3021,-3.43544 5.67547,-4.32746 5.67547,-2.1331 0,1.65124 -6.46579,14.70044 -7.30509,14.74307 -0.36502,0.0186 -1.8858,1.03304 -3.37953,2.25443 l -2.71586,2.22071 3.65336,2.01312 c 2.00935,1.10722 5.34087,3.03891 7.40337,4.29266 2.79274,1.69763 5.10771,2.28346 9.06869,2.29495 4.08998,0.0119 5.93092,0.50272 7.96875,2.1248 1.45753,1.16015 4.68335,3.16406 7.16848,4.45312 9.00461,4.67078 10.45902,6.50318 10.65646,13.42595 0.30208,10.59201 1.77878,16.36686 4.84494,18.94686 3.3109,2.78594 5.76143,7.695 5.76143,11.54167 0,3.17711 -1.48916,4.65886 -3.08168,3.06634 -1.93273,-1.93273 -2.15173,-1.07329 -2.07728,8.15198 0.0614,7.61236 0.41809,9.77814 2.07183,12.58102 3.02725,5.13081 1.26821,7.11586 -5.00338,5.6462 -4.94532,-1.15885 -6.90949,-0.0981 -6.90949,3.73151 0,8.96464 -14.94954,18.76217 -15.76253,10.33035 -0.16157,-1.67579 -0.55734,-3.04688 -0.87948,-3.04688 -1.41475,0 -6.74592,4.35044 -8.06258,6.57938 -2.3642,4.00228 -7.89979,6.53936 -9.50712,4.35733 -1.20442,-1.63507 -1.34311,-1.60286 -2.82301,0.65576 -4.44125,6.7782 -30.92882,7.04054 -30.28275,0.29992 0.27988,-2.92 0.1958,-2.99014 -3.79605,-3.16681 -2.24524,-0.0994 -6.78967,-0.85968 -10.09873,-1.68956 -5.47172,-1.37225 -6.53077,-1.37712 -11.69658,-0.0537 -12.04394,3.08552 -14.17141,-0.10831 -5.56475,-8.354 7.2132,-6.91069 0.39477,-12.79534 -9.86075,-8.51031 -5.48234,2.29067 -8.57367,-1.59756 -4.32623,-5.44146 1.97615,-1.78838 3.91056,-2.03286 3.91056,-0.49423 0,0.70701 1.23215,0.86029 3.71889,0.46265 2.26888,-0.36281 5.19316,-0.0867 7.5,0.70802 4.30288,1.48247 4.98078,0.47448 2.36536,-3.51715 -1.44836,-2.21049 -4.60802,-2.23497 -11.47488,-0.0889 -1.16015,0.36258 -2.10937,0.27253 -2.10937,-0.20011 0,-1.36373 2.10995,-3.10934 3.75832,-3.10934 0.82957,0 2.24084,-0.53563 3.13614,-1.1903 3.89548,-2.84844 -3.05739,-10.95669 -9.44247,-11.01155 -10.65583,-0.0916 -0.11383,-7.75093 10.98551,-7.98161 5.6533,-0.11749 8.03617,-0.65794 12.15907,-2.75774 9.8454,-5.01428 22.39644,-2.02065 30.63884,7.3079 11.07062,12.52945 26.48379,3.19368 15.76276,-9.54753 -3.29228,-3.91266 -29.41865,-16.9417 -35.43973,-17.67355 -4.7161,-0.57323 -24.05813,-9.78776 -31.96629,-15.22872 -6.29071,-4.32812 -7.40442,-2.10761 -2.40465,4.79438 2.78246,3.84108 3.73084,9.49224 2.24345,13.36829 -1.06193,2.76734 -3.18095,1.66616 -3.18095,-1.65301 0,-2.97031 -2.25983,-6.23905 -4.31334,-6.23905 -3.51071,0 -11.26401,-9.87846 -10.38662,-13.23357 0.84819,-3.24354 -1.08933,-2.77816 -2.29309,0.55077 -0.86128,2.38182 -2.01545,3.5571 -4.2018,4.27867 -3.67676,1.21344 -4.48673,3.03892 -3.14808,7.09505 1.21201,3.67242 -0.18955,7.2144 -2.67345,6.75626 -4.06503,-0.74976 -7.48198,-14.60789 -4.82564,-19.57131 0.53377,-0.99735 0.63924,-1.79797 0.23438,-1.77914 -0.65072,0.0303 -3.71756,4.28014 -7.67713,10.63861 -1.79698,2.88566 -0.7732,6.28201 3.14639,10.43797 5.02643,5.32957 7.78333,14.51419 4.35664,14.51419 -0.49669,0 -1.80429,-1.26562 -2.90576,-2.8125 -1.43997,-2.02225 -2.70913,-2.77663 -4.51696,-2.68483 -1.84084,0.0935 -2.01126,0.22837 -0.63626,0.50364 3.22892,0.6464 8.39798,15.6695 6.03876,17.55072 -1.5555,1.24035 -2.79552,3.17702 -5.5934,8.73574 -1.09322,2.17196 -3.43431,4.84309 -5.20241,5.93584 -2.4433,1.51004 -3.21473,2.62731 -3.21473,4.65589 0,3.84299 -3.63444,7.14033 -5.15625,4.678 -1.23616,-2.00015 -3.15122,-0.73352 -6.48697,4.29049 -2.26436,3.41036 -4.59207,5.69632 -6.69512,6.57503 -1.77316,0.74088 -3.74733,2.18516 -4.38705,3.20951 -4.46356,7.14729 -5.88082,-1.77749 -1.56623,-9.86285 2.25903,-4.23332 2.82399,-6.33059 2.56901,-9.53664 -0.27767,-3.49125 -0.14911,-3.86676 0.85412,-2.49477 1.39318,1.90529 1.53387,7.06993 0.30894,11.34104 -1.03874,3.62187 0.0503,3.96571 2.19472,0.69293 3.3597,-5.12756 1.84657,-16.93166 -2.30975,-18.01856 -2.0785,-0.54355 -3.16361,-3.04549 -1.8783,-4.3308 0.63644,-0.63644 1.52908,-0.41847 2.7274,0.666 1.57286,1.42342 1.84628,1.44277 2.33647,0.16534 0.98726,-2.57275 2.48901,-1.53514 2.48901,1.71974 0,1.8046 0.66786,3.71983 1.55283,4.45313 1.42704,1.18243 1.49993,0.81839 0.89984,-4.49411 -0.68435,-6.05834 0.37971,-8.46681 2.22078,-5.02674 1.62047,3.02788 2.98247,2.27949 2.31609,-1.27263 -0.74256,-3.95821 1.01287,-5.36926 2.53195,-2.03523 0.60058,1.31815 1.44613,2.39662 1.879,2.39662 1.51043,0 0.77023,-3.12631 -1.42184,-6.00526 -1.21488,-1.59554 -2.51311,-3.86337 -2.88497,-5.03962 -0.40093,-1.26823 -2.3442,-2.92274 -4.77467,-4.06519 -2.25421,-1.0596 -4.59356,-2.523 -5.19858,-3.25199 -0.605,-0.72899 -1.68117,-1.32544 -2.39147,-1.32544 -0.7103,0 -1.29146,-0.42188 -1.29146,-0.9375 0,-0.51563 -0.61185,-0.9375 -1.35967,-0.9375 -0.74781,0 -1.73805,-0.67615 -2.20054,-1.50257 -0.46249,-0.82641 -1.63823,-1.34901 -2.61276,-1.16134 -1.74129,0.33535 0.30848,1.92544 7.86008,6.09742 4.37342,2.41615 7.23452,5.22325 7.80629,7.65901 0.32293,1.37568 0.89541,3.23951 1.27218,4.14185 0.54559,1.30669 0.20981,1.64063 -1.64969,1.64063 -1.59372,0 -2.50043,0.63373 -2.85687,1.99676 -0.34879,1.3338 -1.00763,1.81047 -1.98434,1.43568 -0.91553,-0.35133 -1.46218,-0.0463 -1.46218,0.81573 0,1.96416 -2.22853,1.701 -4.21875,-0.49817 -1.65637,-1.83026 -1.63747,-1.875 0.7922,-1.875 2.85258,0 3.33615,-1.47979 0.75163,-2.30008 -2.80587,-0.89055 -11.05246,-7.07492 -9.43409,-7.07492 0.81331,0 3.54859,1.04789 6.07842,2.32866 7.1499,3.61973 7.45514,3.68544 5.84321,1.25775 -0.75863,-1.14257 -2.59862,-2.48383 -4.08885,-2.98057 -3.21533,-1.07178 -16.05796,-8.75185 -16.8923,-10.10182 -1.26041,-2.0394 0.85108,-2.08749 4.30771,-0.0981 2.0012,1.15173 4.14769,2.09407 4.76999,2.09407 2.26138,0 -2.54491,-4.01176 -9.15563,-7.64211 -3.69337,-2.02825 -7.2255,-4.30258 -7.84917,-5.05406 -0.62367,-0.75148 -1.58191,-1.36633 -2.12942,-1.36633 -1.44313,0 -9.26012,-3.88983 -8.78062,-4.36934 0.22259,-0.22258 3.51414,1.03971 7.31457,2.80509 3.80042,1.76539 7.96454,3.52226 9.2536,3.90416 1.28906,0.38191 3.05762,1.32057 3.93013,2.08593 0.8725,0.76537 2.13652,1.2082 2.8089,0.98407 0.69688,-0.23229 -0.58985,-1.5432 -2.99262,-3.04884 -2.31834,-1.45272 -4.35793,-3.00658 -4.53244,-3.45302 -0.1745,-0.44645 -2.07294,-1.63178 -4.21875,-2.63407 -4.25579,-1.98785 -9.9524,-5.63291 -8.81875,-5.6428 1.67788,-0.0146 19.28615,9.33665 23.66728,12.56908 4.06672,3.00046 11.71875,7.10037 11.71875,6.27884 0,-1.69154 -17.77317,-13.72034 -31.40625,-21.2556 -4.03573,-2.23062 -5.95996,-3.75083 -4.99759,-3.94827 1.78923,-0.36707 8.881,3.04646 15.22699,7.32933 2.37878,1.60542 4.84719,2.73975 5.48533,2.52071 1.15553,-0.39661 -11.84331,-9.24381 -19.78822,-13.46815 -6.2939,-3.3465 -10.65123,-2.55641 -5.56166,1.00847 l 2.0836,1.45941 -2.02828,0 c -3.02955,0 -3.49935,1.6941 -1.03856,3.745 1.84018,1.53367 1.92459,1.82249 0.54026,1.84881 -4.21203,0.0801 0.41313,7.43601 11.51427,18.31244 13.096,12.83092 14.69248,21.82962 5.16244,29.09854 -8.67375,6.61579 -19.29843,4.4914 -29.56733,-5.91197 -7.38505,-7.48176 -8.23119,-8.06353 -11.55169,-7.94245 -5.32555,0.1942 -9.53399,2.98631 -9.57672,6.35373 -0.0315,2.4813 -0.41799,2.805 -4.21875,3.5332 -5.42401,1.03919 -7.67428,3.28269 -7.81928,7.79578 -0.1312,4.08308 2.11077,5.35039 4.93833,2.79148 4.08989,-3.70129 8.00663,-2.91325 20.72811,4.17043 1.80469,1.00491 5.04932,1.82775 7.21029,1.82856 7.22727,0.003 6.05677,2.11541 -1.82696,3.29765 -4.67981,0.70179 -6.82188,-0.0955 -11.74408,-4.37118 -6.10979,-5.3073 -17.88372,-2.35215 -17.98444,4.51393 -0.0833,5.67848 8.9323,11.22866 12.07957,7.43642 0.74527,-0.89799 2.25811,-1.1553 4.79332,-0.81525 2.0374,0.27327 4.24065,0.0518 4.89612,-0.49222 3.03413,-2.51811 27.88868,-5.82006 27.88868,-3.70503 0,2.19341 -1.93028,3.20796 -7.23878,3.80469 -8.5141,0.95706 -12.27159,6.19743 -6.58935,9.1898 1.16016,0.61096 2.36034,1.49402 2.66706,1.96235 1.00321,1.53181 5.51419,-0.34329 7.48529,-3.11145 1.93216,-2.71346 5.55078,-3.72459 5.55078,-1.55101 0,0.63649 0.73828,-0.15595 1.64062,-1.76097 2.57241,-4.57559 8.44435,-10.89756 9.51006,-10.23891 1.39903,0.86465 -0.40564,5.07628 -3.07481,7.17586 -2.48955,1.95828 -3.48112,6.33257 -2.72066,12.00216 0.65652,4.89477 1.78869,4.90616 3.10139,0.0312 0.80746,-2.9987 1.6986,-4.10075 4.14118,-5.12133 3.55819,-1.48671 4.27722,-2.84048 4.27722,-8.05304 0,-3.20127 0.40788,-3.93849 2.9401,-5.31395 1.61706,-0.87836 4.16285,-2.75718 5.65733,-4.17515 6.33745,-6.01304 7.46479,0.32969 2.11614,11.90612 -1.8419,3.98657 -3.16296,7.7374 -2.93569,8.33517 1.21635,3.19911 -1.09633,5.30559 -5.82496,5.30559 -4.92077,0 -8.72497,3.15625 -9.60463,7.96875 -0.70205,3.84086 -3.95594,2.21126 -5.61584,-2.8125 -1.73092,-5.23873 -6.51944,-6.89746 -11.29596,-3.9129 -1.18539,0.74068 -5.50999,1.6095 -9.61024,1.93071 -4.47288,0.35041 -8.82173,1.29642 -10.87167,2.36491 -5.83278,3.04021 -7.43162,-1.22816 -2.70896,-7.23204 2.5581,-3.25211 2.28257,-4.23997 -0.99562,-3.56959 -1.54688,0.31634 -4.01061,0.82407 -5.47495,1.12829 -3.22887,0.67081 -15.36156,-2.7675 -17.08243,-4.84102 -1.79212,-2.15937 -5.8067,-4.01962 -11.14577,-5.16464 -7.14734,-1.53283 -5.45228,-6.5752 3.57947,-10.64795 6.63965,-2.99407 2.57198,-7.60217 -7.39801,-8.38093 -9.70642,-0.75817 -0.18862,-9.02046 10.58165,-9.18581 6.24406,-0.0959 4.8641,-4.17488 -2.39583,-7.08178 -3.89775,-1.56069 -4.06824,-2.9157 -0.5901,-4.69031 2.89459,-1.47687 13.15321,-1.52606 16.33069,-0.0783 1.98218,0.90314 3.29627,0.79604 7.12477,-0.58067 8.2547,-2.96835 14.44636,-0.83305 24.28301,8.37441 8.07547,7.55893 9.32332,8.16907 15.13851,7.40206 13.15502,-1.73514 15.06772,-14.56013 3.40814,-22.85213 -12.0723,-8.5855 -15.07102,-12.60034 -17.71911,-23.72328 -1.34577,-5.65272 -2.49876,-5.28812 -4.58336,1.44932 -3.37686,10.91403 -14.88498,18.19633 -19.66109,12.44146 -0.63057,-0.75978 -2.59902,-1.65393 -4.37434,-1.98698 -5.05376,-0.9481 0.31881,-6.94407 6.22209,-6.94407 2.99567,0 5.00112,-1.99698 7.09552,-7.06557 0.84445,-2.04362 2.21485,-4.47972 3.04535,-5.41354 1.74648,-1.96378 -0.0226,-3.90657 -2.63421,-2.89286 -0.77344,0.30021 -3.9375,0.77498 -7.03125,1.05504 -3.09375,0.28006 -6.7642,1.08469 -8.15657,1.78806 -5.65522,2.85683 -6.24683,-0.42046 -0.98405,-5.45128 4.07723,-3.89752 6.81561,-5.45735 9.58072,-5.45735 1.08329,0 2.90399,-0.5781 4.04601,-1.28467 1.14201,-0.70656 5.18673,-1.77379 8.98826,-2.37162 7.8209,-1.22992 13.62041,-4.17327 19.48547,-9.88921 2.14353,-2.08904 4.67478,-4.46423 5.625,-5.27819 2.64365,-2.26459 5.94641,-6.39326 5.94641,-7.43345 0,-3.14694 -22.44433,2.8581 -53.4375,14.29736 -6.96094,2.56921 -15.39844,5.44433 -18.75,6.38914 -3.35156,0.94482 -10.6967,3.65137 -16.32253,6.01455 -5.62583,2.36319 -13.21958,5.08189 -16.875,6.04157 -3.65542,0.95967 -9.19531,2.58359 -12.31087,3.60869 -3.11555,1.0251 -7.96712,2.17585 -10.78125,2.55724 -2.81413,0.38138 -6.17685,1.23594 -7.4727,1.89902 -1.29586,0.66307 -4.45992,1.50764 -7.03125,1.87682 -2.57133,0.36917 -5.5189,1.42426 -6.55015,2.34463 -2.05837,1.83706 -8.0045,3.71469 -11.78971,3.72289 -1.34978,0.003 -3.37306,1.02535 -4.58778,2.31836 -2.45854,2.61701 -8.5714,4.88842 -15.49751,5.75858 -2.57812,0.3239 -6.45012,1.59339 -8.60444,2.8211 -4.03408,2.29895 -9.1235,2.94841 -10.14556,1.29469 -1.12624,-1.82229 -3.25268,-0.90424 -3.80013,1.64062 -1.63169,7.58516 -4.59958,11.48438 -8.74132,11.48438 -2.59932,0 -4.8023,3.4902 -4.8023,7.6083 0,8.1089 -5.51994,4.39814 -7.0329,-4.72785 l -0.68814,-4.1508 -1.26196,3.67079 c -0.69408,2.01893 -1.6392,3.79654 -2.10028,3.95024 -3.34828,1.11608 -4.40363,3.11679 -4.85422,9.20244 -0.60576,8.18131 -1.99112,8.52056 -5.60003,1.37134 l -2.87815,-5.70158 -2.66573,1.3785 c -2.03857,1.05419 -2.80864,2.27215 -3.27311,5.17679 -1.86673,11.67389 -7.40582,17.81885 -9.53793,10.5812 l -1.58802,-5.39062 -1.36855,4.6875 c -0.7527,2.57812 -2.54575,5.95312 -3.98455,7.5 -1.4388,1.54687 -2.88695,3.86718 -3.21811,5.15625 -0.33115,1.28906 -1.8306,3.76766 -3.3321,5.50801 l -2.73,3.16425 -1.74021,-5.90912 c -1.79719,-6.10271 -4.02101,-8.51631 -4.02101,-4.36422 0,3.2897 -4.1464,12.2247 -6.99491,15.07321 -1.32956,1.32956 -2.67266,3.69379 -2.98467,5.25385 -0.54848,2.7424 -5.02042,4.43631 -5.02042,1.90167 0,-0.51413 -1.5411,-2.64061 -3.42467,-4.7255 l -3.42467,-3.79069 -2.4613,2.35808 c -1.35372,1.29695 -3.9259,2.83789 -5.71596,3.4243 -6.51512,2.13435 -11.20146,4.80235 -13.96606,7.95104 -3.40262,3.87537 -4.50253,4.00985 -5.75934,0.70416 z m 6.58417,-6.34124 c 1.72253,-2.07551 0.8576,-5.6766 -1.36342,-5.6766 -1.48994,0 -1.93476,0.72199 -2.16597,3.51562 -0.31206,3.77047 1.34938,4.78774 3.52939,2.16098 z m 473.70035,-2.77715 c 2.3019,-3.42377 -0.55265,-6.24692 -4.49855,-4.44904 -3.90888,1.781 -3.27126,6.85103 0.7629,6.06623 1.67579,-0.326 3.35683,-1.05373 3.73565,-1.61719 z m -183.73565,-2.6183 c 1.98914,-0.7201 2.57813,-1.54227 2.57813,-3.59878 0,-4.03973 -1.27668,-4.03476 -5.02788,0.0196 -3.681,3.97846 -4.46386,6.26971 -1.769,5.17749 0.90235,-0.36572 2.80079,-1.08494 4.21875,-1.59827 z m 195.22464,0.42197 c 0.76808,-0.90234 3.7666,-4.17187 6.66337,-7.26562 2.89677,-3.09375 6.33222,-7.20703 7.63432,-9.14063 4.55987,-6.7713 6.25717,-3.57855 2.02204,3.80359 C 640.20183,354.67508 639.68206,360 641.25,360 c 0.51562,0 0.9375,-0.96082 0.9375,-2.13515 0,-2.70078 2.47734,-6.30235 4.33508,-6.30235 1.01601,0 1.23813,0.56126 0.78597,1.98592 -0.4551,1.4339 -0.27722,1.871 0.63994,1.57252 2.05233,-0.66793 4.45785,-6.51176 4.50648,-10.94779 0.0275,-2.5052 0.83425,-5.38508 2.06777,-7.38095 l 2.02275,-3.27287 1.36208,2.59963 c 0.74915,1.4298 1.43281,3.06373 1.51925,3.63097 0.0864,0.56722 0.52093,1.61421 0.96554,2.32665 0.53545,0.85797 0.28915,1.5859 -0.72949,2.15595 -0.90313,0.50542 -1.53787,2.0451 -1.53787,3.73041 l 0,2.86978 1.77691,-2.19439 1.7769,-2.19438 -0.45806,3.96553 c -0.58964,5.10465 0.28805,5.03172 2.60974,-0.21685 1.76794,-3.99673 1.77943,-4.34006 0.25894,-7.73438 -0.87512,-1.9536 -1.70159,-5.2395 -1.8366,-7.302 -0.13501,-2.0625 -0.53537,-4.91016 -0.88969,-6.32812 -0.5073,-2.03016 -0.31585,-2.57813 0.90074,-2.57813 1.58935,0 1.85318,0.46201 2.84864,4.98848 0.33435,1.52026 1.06517,2.46693 1.71893,2.22656 0.62552,-0.22999 1.03183,-0.89277 0.90292,-1.47285 -0.1289,-0.58008 0.39844,-1.05469 1.17188,-1.05469 1.01562,0 1.40625,1.04167 1.40625,3.75 0,2.0625 0.42187,3.75 0.9375,3.75 1.20161,0 1.19182,-0.19138 -0.39841,-7.79194 -0.73476,-3.51173 -2.03408,-7.45053 -2.88742,-8.75286 -1.87068,-2.85504 -1.3434,-3.67921 1.41083,-2.2052 1.11957,0.59918 2.28761,0.83739 2.59564,0.52936 1.02445,-1.02444 -3.21757,-5.68047 -5.47811,-6.01274 -4.63817,-0.68176 -12.04701,-7.35535 -10.659,-9.60122 0.97928,-1.58451 6.4714,-0.94344 7.61574,0.88894 1.72856,2.76786 9.67505,7.07133 10.8633,5.88309 0.70962,-0.70962 0.47781,-1.16855 -0.79643,-1.57671 -4.71573,-1.51059 -5.79034,-2.32519 -6.3261,-4.79549 -0.91716,-4.22897 -2.07417,-5.28835 -6.40723,-5.86662 -2.24694,-0.29986 -3.85447,-0.96154 -3.59531,-1.47986 0.55753,-1.11506 5.89673,-1.14017 9.84375,-0.0463 l 2.8125,0.77945 -2.21801,-2.41764 c -1.34962,-1.47109 -4.7429,-3.18456 -8.66696,-4.37646 -6.86463,-2.08506 -8.77385,-3.87381 -9.84358,-9.22245 -0.80052,-4.00258 2.91716,-4.57226 6.73644,-1.03228 1.87962,1.74218 7.89836,1.70837 7.89836,-0.0443 0,-1.92938 -4.97735,-4.99672 -8.80895,-5.4286 -2.45746,-0.27699 -4.90645,-1.21612 -5.82867,-2.23516 -0.94255,-1.04151 -2.85003,-1.75746 -4.68231,-1.75746 -4.32339,0 -7.64402,-1.62783 -12.66848,-6.21028 -3.38968,-3.09149 -5.32726,-4.08976 -8.90625,-4.58862 -5.18204,-0.72231 -13.51486,-2.94385 -17.69909,-4.71859 -1.54688,-0.65611 -4.84007,-1.9067 -7.3182,-2.77909 -5.7276,-2.01631 -11.59792,-7.95342 -7.86394,-7.95342 0.67327,0 2.65366,1.05469 4.40089,2.34375 2.04559,1.50919 4.36376,2.32509 6.51026,2.29137 l 3.33349,-0.0524 -4.17407,-1.69238 c -5.81192,-2.35645 -12.48096,-10.47208 -7.54468,-9.18122 1.03125,0.26968 1.875,0.10795 1.875,-0.35941 0,-2.13427 3.61115,-0.46135 7.70217,3.56816 4.32399,4.25896 4.48533,4.33014 4.48533,1.97885 0,-5.04949 -6.69444,-10.12965 -21.91605,-16.63127 -2.51476,-1.07411 -5.37922,-1.95295 -6.36548,-1.95295 -2.78582,0 -9.03575,-3.53184 -10.24356,-5.78867 -0.59829,-1.11789 -2.29989,-3.05246 -3.78135,-4.29903 -2.77659,-2.33634 -3.58795,-4.93779 -1.52169,-4.87891 3.46324,0.0987 12.44401,2.89706 14.17404,4.41656 1.09881,0.9651 3.05253,2.25112 4.34159,2.85783 1.28906,0.60673 3.4021,1.95923 4.69566,3.00557 2.6274,2.1253 14.99184,3.87059 14.99184,2.11617 0,-0.53164 -1.79297,-1.23813 -3.98438,-1.56998 -2.1914,-0.33185 -5.67187,-1.62646 -7.73437,-2.87692 -2.0625,-1.25045 -5.31175,-2.96297 -7.22057,-3.8056 -2.52244,-1.1135 -3.76206,-2.41533 -4.53762,-4.76527 -0.60745,-1.84061 -4.02796,-6.22309 -7.94135,-10.17477 -3.78085,-3.81784 -6.44491,-7.08466 -5.92011,-7.25959 1.93205,-0.64403 -3.00177,-7.0176 -6.73581,-8.70142 -3.64338,-1.64294 -4.92327,-3.27645 -2.56642,-3.2755 2.15135,8.7e-4 10.60903,3.57451 15.29271,6.46165 4.99155,3.07692 11.66042,6.07165 11.66042,5.23623 0,-0.28288 -0.68133,-1.55416 -1.51407,-2.82508 -1.45657,-2.223 -0.74894,-3.18775 1.09219,-1.48904 2.26418,2.089 12.90733,5.11357 20.27329,5.76125 5.42823,0.4773 9.5568,1.42635 12.41526,2.85393 4.67135,2.33299 5.74883,2.1017 4.75764,-1.02127 -0.88777,-2.79712 -9.59001,-6.53663 -15.25416,-6.55499 -5.10495,-0.0166 -8.24179,-1.35478 -5.57471,-2.37823 2.38168,-0.91394 19.77544,1.32091 26.36725,3.3878 5.89998,1.84998 19.53541,2.57854 17.85918,0.95425 -0.48984,-0.47466 -3.99397,-2.41272 -7.78695,-4.30679 -7.67033,-3.83025 -7.66375,-4.42156 0.0657,-5.90986 2.94629,-0.56731 7.1626,-1.90389 9.36956,-2.97017 2.20695,-1.06629 5.61272,-2.19457 7.56836,-2.50729 1.95565,-0.31272 4.06747,-1.27882 4.69296,-2.14689 0.62547,-0.86806 2.49628,-2.37207 4.15734,-3.34221 1.66106,-0.97015 3.44794,-2.84022 3.97083,-4.15571 0.5229,-1.31549 1.31875,-3.02461 1.76857,-3.79805 2.29004,-3.93756 3.89673,-7.44568 3.89673,-8.50833 0,-5.61553 10.76643,-5.95105 22.24921,-0.69336 4.50753,2.06388 10.50618,1.97333 11.48027,-0.17331 0.35096,-0.77344 1.55384,-3.17733 2.67306,-5.34199 2.63708,-5.10027 1.86743,-6.45772 -1.89226,-3.33745 -1.75155,1.45365 -10.54632,1.3034 -15.76028,-0.26926 -2.32031,-0.69987 -5.45184,-1.3985 -6.95895,-1.55252 -7.10269,-0.72585 -1.85004,-4.272 7.64052,-5.15825 5.52318,-0.51576 6.20088,-0.82897 8.51368,-3.93482 1.38206,-1.85595 2.93711,-3.72157 3.45567,-4.14583 0.51856,-0.42424 -2.01029,-0.59293 -5.61967,-0.37484 -7.01495,0.42386 -12.68924,2.68109 -15.9375,6.33995 -8.20634,9.24366 -12.10794,9.3267 -13.37675,0.28473 -0.65588,-4.67411 -1.6855,-8.02594 -2.95184,-9.60938 -1.06954,-1.33737 -2.74529,-3.90815 -3.72388,-5.71284 -2.64294,-4.87403 -7.64481,-8.96115 -17.13565,-14.00187 -15.5785,-8.273974 -30.41209,-11.256621 -58.90561,-11.844368 -51.42964,-1.06087 -56.85453,-1.289183 -62.34375,-2.623807 -10.45327,-2.54156 -12.17321,-3.116902 -18.75,-6.272074 -8.92223,-4.280389 -31.09828,-4.887409 -26.94852,-0.737657 0.57944,0.579441 4.54962,1.121203 8.84374,1.206795 7.7168,0.153816 10.68257,1.04072 14.35478,4.292746 1.03125,0.913253 3.91059,2.231627 6.39854,2.929722 5.92854,1.663491 5.26406,3.145857 -1.40662,3.137972 -4.0763,-0.0047 -6.00327,-0.511003 -8.2397,-2.164471 -5.49783,-4.064722 -21.22313,-4.176918 -34.25222,-0.244382 -2.8659,0.865007 -11.43409,2.349163 -19.45313,3.369603 -2.44921,0.311672 -4.45312,0.951872 -4.45312,1.422657 0,3.325474 17.49437,5.607404 23.90625,3.118284 2.0625,-0.80067 5.85937,-1.854909 8.4375,-2.342756 10.93303,-2.0688 10.47683,-2.074247 11.05376,0.131943 0.6232,2.383093 7.85471,2.352753 13.54252,-0.05681 2.84914,-1.206994 6.36906,-0.130631 4.77752,1.460925 -1.30707,1.30705 -11.51323,3.48821 -19.53005,4.17376 -4.89844,0.41888 -10.17188,1.21665 -11.71875,1.77281 -1.54688,0.55616 -5.13281,1.68929 -7.96875,2.51806 -2.83594,0.82876 -10.64063,3.56475 -17.34375,6.07997 -15.73447,5.90405 -25.07077,8.91677 -36.09375,11.64705 -17.74494,4.39523 -21.11743,4.74679 -45,4.69079 l -22.96875,-0.0538 -14.53125,-3.5663 c -43.05439,-10.56652 -60.83931,-34.517218 -42.18021,-56.803466 3.83559,-4.581177 5.9614,-6.058208 14.65505,-10.182438 2.1346,-1.012645 4.16341,-2.297962 4.50846,-2.85626 0.34504,-0.558327 1.64283,-1.015116 2.88397,-1.015116 1.24114,0 3.64202,-0.581217 5.3353,-1.291594 9.60145,-4.028081 30.14864,-6.019585 44.79743,-4.341921 32.2189,3.689895 48.73402,4.072919 60,1.39154 3.86719,-0.920417 11.64289,-1.924538 17.27933,-2.23138 l 10.24808,-0.557895 -4.62308,-2.46501 c -6.58141,-3.509186 -10.40819,-3.938312 -19.21215,-2.154401 -7.09287,1.437198 -33.78583,0.619513 -35.49258,-1.087244 -1.45295,-1.452946 2.67815,-2.276908 10.77062,-2.148235 20.0153,0.318252 21.58189,0.08435 22.91474,-3.421293 1.10128,-2.896602 6.42476,-3.143941 15.5178,-0.72099 5.26539,1.403029 7.2161,1.461716 16.09138,0.484099 5.55478,-0.611864 11.04883,-0.859245 12.20898,-0.549736 5.08265,1.355959 0.77913,-4.039172 -5.39062,-6.757989 -1.80469,-0.795269 -7.48417,-2.076395 -12.62107,-2.846945 -17.7234,-2.658561 -15.88123,-2.785477 -34.23509,2.358608 -12.87168,3.607583 -15.24473,1.990346 -4.47197,-3.047657 3.73829,-1.748249 8.27344,-3.490748 10.07813,-3.872218 9.21172,-1.947157 17.83054,-9.09407 12.40425,-10.285882 -8.63524,-1.896618 -15.76568,1.087075 -33.498,14.017036 -11.72629,8.550519 -33.52911,13.913407 -31.12817,7.656667 0.28035,-0.730569 2.12544,-1.60965 4.10019,-1.953516 5.70099,-0.992712 8.42447,-2.377324 9.55451,-4.85747 0.57805,-1.268682 1.68746,-2.55093 2.46536,-2.849437 7.23625,-2.776811 -11.17807,-2.650661 -19.21064,0.131606 -2.32031,0.803694 -6.53906,3.130501 -9.375,5.170683 -5.85729,4.213752 -16.25408,9.355574 -18.91702,9.355574 -0.98047,0 -3.50265,0.877462 -5.60483,1.949917 -4.05265,2.067509 -4.92658,2.317965 -12.85108,3.682946 -2.76605,0.476447 -6.77386,1.683945 -8.90625,2.683329 -2.13239,0.999384 -5.82979,2.654778 -8.21645,3.678654 -19.84623,8.514024 -29.68223,33.911425 -20.5271,53.002754 2.14359,4.47007 4.2772,8.1274 4.74134,8.1274 0.74623,0 3.17319,2.06467 9.87386,8.39993 1.06492,1.00684 5.28367,3.16269 9.375,4.79075 4.09133,1.62807 7.86065,3.28705 8.37628,3.68662 0.51562,0.39956 3.46875,1.226 6.5625,1.83654 7.9705,1.57294 12.83513,2.87715 14.97104,4.01377 1.79659,0.95603 4.20669,1.21745 17.85575,1.93675 3.61723,0.19063 7.51957,0.85116 8.67187,1.46785 1.2468,0.66727 2.09509,0.74647 2.09509,0.19559 0,-0.99889 5.02008,-0.73686 7.79739,0.40701 0.9379,0.38628 2.14839,0.25691 2.69313,-0.28783 0.69431,-0.69431 1.67437,-0.67743 3.28537,0.0566 1.55211,0.7072 2.50191,0.73505 2.93187,0.086 0.73281,-1.10626 7.55845,-1.09683 9.35407,0.0129 0.67335,0.41616 1.8065,0.24959 2.56081,-0.37644 0.74806,-0.62084 2.38068,-0.86496 3.65148,-0.54601 1.28949,0.32364 2.57937,0.12237 2.93837,-0.45851 0.3749,-0.60659 1.81318,-0.80073 3.47292,-0.46878 1.59237,0.31846 3.39355,0.1014 4.11298,-0.49569 0.72007,-0.59759 2.68647,-0.83404 4.49524,-0.54051 2.17013,0.35216 3.57618,0.0869 4.32561,-0.81613 0.61069,-0.73583 2.33004,-1.33788 3.82077,-1.33788 1.49074,0 3.44299,-0.4206 4.33834,-0.93466 2.14111,-1.22932 13.70156,-5.51078 18.69185,-6.92261 2.16643,-0.61292 4.24064,-1.41608 4.60938,-1.78481 0.36873,-0.36874 1.81407,-0.67042 3.21188,-0.67042 1.3978,0 3.06664,-0.63282 3.70854,-1.40625 0.6419,-0.77344 1.9242,-1.40625 2.84957,-1.40625 0.92537,0 3.51043,-0.77976 5.74458,-1.73279 2.23415,-0.95305 6.36293,-2.28137 9.17506,-2.95185 2.81213,-0.67049 7.24182,-2.16777 9.84375,-3.3273 5.00037,-2.22843 18.32454,-4.0164 18.32454,-2.45902 0,0.49095 -1.16016,1.17738 -2.57813,1.52541 -10.13677,2.48794 -33.11426,15.7531 -30.98144,17.88592 3.01663,3.01662 24.13817,-5.7147 35.56332,-14.70133 3.77979,-2.97306 16.06057,-8.3016 19.13283,-8.3016 1.20464,0 2.43895,-0.40238 2.7429,-0.89418 0.30394,-0.49179 3.08047,-1.18017 6.17005,-1.52972 3.08959,-0.34954 5.84382,-1.00185 6.12052,-1.44957 0.27672,-0.44771 2.40438,-0.81403 4.72816,-0.81403 2.32378,0 4.99037,-0.40958 5.92576,-0.91019 0.93539,-0.50061 6.28657,-1.13807 11.8915,-1.41657 5.60492,-0.27851 14.19859,-0.70249 19.09703,-0.942171 9.85833,-0.482372 22.58052,-0.431203 29.0625,0.116887 2.32031,0.196194 5.48438,0.384814 7.03125,0.419154 1.54688,0.0343 4.5,0.61616 6.5625,1.29296 2.0625,0.67678 6.07031,1.7313 8.90625,2.34337 2.83594,0.61208 6.42188,1.6877 7.96875,2.39027 1.54688,0.70257 4.78915,2.17178 7.20505,3.26491 2.4159,1.09312 6.00184,3.21052 7.96875,4.70534 1.96692,1.49482 5.11215,3.89616 6.98943,5.33631 13.75771,10.5543 11.4973,36.1548 -4.31549,48.87555 -16.69737,13.43234 -55.94288,16.727 -93.31649,7.83393 -2.32031,-0.55212 -7.9427,-1.89485 -12.49419,-2.98384 -4.5515,-1.08899 -10.4804,-2.98856 -13.17534,-4.22125 -7.90559,-3.61609 -32.25276,-3.92987 -46.51797,-0.5995 -2.32031,0.5417 -7.80469,1.82019 -12.1875,2.8411 -11.43467,2.66352 -30.41416,5.08559 -34.23468,4.36886 -2.58434,-0.48483 -3.26532,-0.31045 -3.26532,0.83615 0,0.7968 -0.31641,1.46962 -0.70313,1.49515 -0.38671,0.0255 -4.33489,0.23044 -8.77372,0.45538 -4.43883,0.22493 -10.97789,1.07473 -14.53125,1.88842 -6.73795,1.54295 -54.94019,3.35604 -70.21065,2.64091 -24.93975,-1.16794 -34.11642,-0.96666 -33.20926,0.72837 1.20817,2.2575 2.53716,2.94373 5.91256,3.053 2.05294,0.0665 2.99562,0.61095 3.23816,1.87035 0.31937,1.65834 -0.0854,1.72919 -6.0809,1.06447 -12.01935,-1.33261 -20.49546,-0.60097 -18.31368,1.58081 4.1672,4.1672 0.23667,6.47412 -6.1165,3.58991 -4.59903,-2.08786 -13.68996,-1.70383 -16.446,0.69473 -1.47689,1.28533 -1.82776,1.25848 -3.51563,-0.26902 -3.017,-2.73035 -2.16795,-0.55839 1.875,4.79646 2.0625,2.73176 3.75,6.02478 3.75,7.31783 0,1.37999 0.7632,2.75944 1.84787,3.33994 1.43896,0.77011 1.72421,1.60724 1.28906,3.78299 -0.33382,1.66911 -0.16582,2.79403 0.41727,2.79403 1.14598,0 8.6333,6.80977 8.6333,7.85205 0,0.39149 -0.78881,0.46144 -1.75293,0.15545 -1.37607,-0.43676 -1.87107,0.0344 -2.30246,2.19131 -0.79205,3.96025 -8.74337,7.60442 -10.47586,4.80119 -2.13972,-3.46215 -2.78475,7.3689 -0.7258,12.1875 l 1.00145,2.34375 1.03406,-2.63916 c 0.56872,-1.45153 1.03404,-3.92652 1.03404,-5.49996 0,-2.50927 0.25921,-2.79135 2.10937,-2.29553 1.16016,0.31092 2.56426,0.57106 3.12024,0.5781 1.12843,0.0143 3.20789,8.00517 3.20789,12.32715 0,1.53797 0.37526,2.56438 0.83392,2.28092 1.44105,-0.89062 1.6992,-7.3203 0.52065,-12.96792 -1.03463,-4.95797 -0.98513,-5.5091 0.56953,-6.34113 2.65919,-1.42315 2.87256,-1.17339 2.62544,3.07315 -0.85546,14.69992 1.47821,22.57139 2.55126,8.60541 0.27451,-3.57282 0.73627,-7.97259 1.02613,-9.77728 l 0.52703,-3.28125 1.23067,4.6875 c 0.67687,2.57812 0.99269,6.48047 0.70184,8.67187 -0.31794,2.39546 -0.15306,3.98438 0.41343,3.98438 1.05038,0 2.09901,-5.20233 2.11478,-10.49154 0.006,-1.90317 0.38423,-3.69139 0.84124,-3.97384 1.41667,-0.87555 1.92056,3.24565 1.33123,10.88791 -0.66388,8.60894 0.018,9.32236 2.0919,2.18854 1.79446,-6.1727 3.24595,-7.46286 3.24595,-2.88515 0,4.06769 1.70645,4.41372 2.48827,0.50457 0.31153,-1.5576 0.93379,-3.05906 1.38282,-3.33658 1.0992,-0.67934 1.04452,0.12407 -0.58968,8.66424 -2.00544,10.48028 -1.94469,18.13192 0.12752,16.05971 1.06819,-1.06819 1.59764,-3.47754 1.74377,-7.93528 0.1154,-3.52073 0.69077,-7.58895 1.27857,-9.04049 0.5878,-1.45153 1.06873,-4.96715 1.06873,-7.81249 0,-3.72034 0.32914,-5.06452 1.17187,-4.78586 1.792,0.59254 2.07555,13.2189 0.35734,15.91183 -1.85545,2.90803 -1.8684,12.49302 -0.0148,10.95466 0.81356,-0.6752 1.31344,-3.04657 1.33923,-6.35314 0.0226,-2.90171 0.64909,-6.96334 1.39214,-9.02584 0.74303,-2.0625 1.35733,-5.54297 1.36509,-7.73437 0.0151,-4.25257 1.19746,-5.1535 2.80976,-2.1409 1.14262,2.13503 0.23896,9.54581 -1.2848,10.53645 -0.55936,0.36365 -1.28865,3.52771 -1.62066,7.03125 -0.332,3.50354 -0.91419,7.31929 -1.29375,8.47945 -0.39911,1.21989 -0.30354,2.10937 0.22662,2.10937 1.73996,0 4.92695,-10.32734 4.92695,-15.9656 0,-3.01743 0.42188,-5.74697 0.9375,-6.06565 0.51563,-0.31867 0.9375,-2.06623 0.9375,-3.88345 0,-5.02638 2.28597,-3.41832 2.62959,1.84978 0.18578,2.84824 -0.22443,5.11078 -1.17187,6.46344 -0.80175,1.14465 -1.45772,3.91348 -1.45772,6.15296 0,2.23949 -0.44855,4.90991 -0.99678,5.93429 -0.54823,1.02437 -0.84201,2.57866 -0.65285,3.45399 0.55292,2.55864 4.12242,-5.22723 4.85783,-10.59601 1.6467,-12.02164 3.44477,-16.80192 4.76055,-12.65625 0.32731,1.03125 1.26007,1.875 2.0728,1.875 1.47532,0 1.28624,9.22211 -0.32033,15.62318 -0.30221,1.20413 -0.14959,2.18932 0.33917,2.18932 1.44992,0 2.91065,-4.14956 3.59735,-10.2192 1.10139,-9.73507 3.46005,-10.72847 2.83738,-1.19503 -0.38055,5.82646 -0.22535,7.70973 0.61233,7.43049 1.43065,-0.47688 2.3676,-3.83298 2.4866,-8.90689 0.10368,-4.42034 1.67497,-5.45261 2.14056,-1.40625 0.21319,1.85291 0.75814,2.50064 1.93727,2.30265 1.66551,-0.27964 2.07809,1.26793 1.66353,6.23993 -0.22482,2.69639 2.18083,2.30919 2.59171,-0.41714 1.03407,-6.86119 2.98958,-8.46952 3.04019,-2.50044 0.0279,3.29457 0.11638,3.4012 1.40625,1.69582 0.75704,-1.00089 1.37644,-3.42667 1.37644,-5.39062 0,-2.04222 0.45627,-3.57082 1.06585,-3.57082 1.58985,0 0.43536,11.53449 -1.41955,14.18274 -1.80937,2.58324 -2.0285,5.89146 -0.34942,5.2754 0.64453,-0.23648 4.96875,-1.6104 9.60937,-3.05316 4.64063,-1.44276 9.07031,-3.12395 9.84375,-3.736 3.53766,-2.79942 14.07892,-7.79842 18.75,-8.89184 2.83594,-0.66383 8.32031,-2.46188 12.1875,-3.99565 3.86719,-1.53378 8.71875,-3.43499 10.78125,-4.22492 2.0625,-0.78993 5.06814,-2.0064 6.67918,-2.70328 1.61105,-0.69688 6.04074,-1.91913 9.84375,-2.7161 3.80302,-0.79698 10.06942,-2.50602 13.92535,-3.79789 10.48832,-3.51392 31.35033,-6.92053 42.62985,-6.96109 2.27643,-0.008 -1.5704,-2.06168 -7.88658,-4.20995 -5.43386,-1.84819 -8.79785,-2.35576 -15.61291,-2.35576 -8.99967,0 -11.77914,-1.12165 -7.21315,-2.91088 12.11844,-4.74875 38.79514,6.10087 52.32203,21.27979 0.51562,0.57859 3.28959,2.36641 6.16438,3.97291 2.87479,1.60651 6.43848,4.04379 7.91932,5.41619 1.48084,1.37239 3.99959,2.85618 5.59722,3.29731 5.58418,1.54186 8.48713,16.19742 4.66213,23.5368 -1.35414,2.59832 -2.3118,6.01936 -2.3118,8.25845 0,4.64692 1.43593,4.13662 2.81962,-1.00203 0.54757,-2.03351 2.0356,-4.81949 3.30673,-6.19106 2.73876,-2.95518 3.27088,-13.08113 0.9049,-17.21998 -1.51863,-2.65657 -1.72466,-3.75327 -0.70313,-3.74278 1.49408,0.0154 4.92188,7.56491 4.92188,10.84018 0,2.95565 0.19964,3.27899 1.40625,2.2776 2.03737,-1.69087 1.73259,-5.04332 -0.9375,-10.3125 -4.56629,-9.01114 -2.54012,-11.3616 2.60641,-3.02357 l 3.34167,5.41392 -0.92668,7.66515 c -0.87489,7.23677 -0.80905,7.82427 1.17811,10.51205 2.58676,3.49878 3.19864,3.20655 1.29133,-0.61673 -1.81292,-3.63408 -0.83917,-7.34169 1.02138,-3.88895 1.24664,2.31347 1.77267,1.78654 2.46385,-2.46812 0.1856,-1.14247 1.03113,-1.875 2.16427,-1.875 1.5096,0 1.9479,-0.79414 2.32841,-4.21875 0.72315,-6.50834 2.92761,-5.57099 4.40962,1.875 0.90261,4.53492 1.83599,6.60093 3.64874,8.07641 4.65875,3.79199 17.77712,9.75059 26.52,12.04587 21.78532,5.71932 37.56469,14.55107 42.63189,23.86119 10.96639,20.14886 -10.45832,31.37179 -26.1165,13.68064 -6.21824,-7.02559 -11.36164,-9.00361 -18.28125,-7.03052 -4.8959,1.39605 -5.67949,2.15934 -6.64973,6.47756 -1.23431,5.49355 -0.43263,6.08505 4.4049,3.25007 6.92783,-4.05999 12.4017,-3.06924 20.36455,3.68585 5.80784,4.92693 6.63237,5.32793 10.9554,5.32793 5.04726,0 6.13961,1.36451 2.2701,2.8357 -5.0485,1.91944 -8.64899,1.1338 -12.94291,-2.82421 -8.91669,-8.21911 -18.92383,-8.85341 -25.14167,-1.5936 -6.31951,7.37854 -0.96692,13.27196 5.69425,6.26961 5.29884,-5.57023 10.34891,-5.4032 19.19222,0.6348 6.63284,4.52874 9.39504,5.19731 15.36851,3.71983 4.02229,-0.99486 3.96662,0.54901 -0.11065,3.06891 -3.23995,2.00239 -10.34053,2.68569 -11.32674,1.08998 -4.74107,-7.67122 -19.89714,-8.88818 -23.51692,-1.88829 -4.62278,8.93947 8.58883,18.47463 15.7188,11.34466 0.6022,-0.6022 2.10977,-1.09489 3.35018,-1.09489 1.24041,0 3.50864,-1.05462 5.0405,-2.3436 1.84648,-1.5537 3.47267,-2.17106 4.82488,-1.83169 1.12181,0.28156 4.78093,-0.1737 8.13136,-1.01168 11.62036,-2.90638 11.17073,-3.03599 6.09644,1.75732 -2.54271,2.40193 -5.40468,4.36715 -6.35993,4.36715 -4.70842,0 -6.4932,4.08188 -3.79172,8.67188 0.79395,1.34896 5.93897,0.69044 7.32469,-0.9375 z M 353.78413,253.19838 c 2.72142,-7.76833 4.6809,-6.11745 2.41658,2.03599 -0.66757,2.40378 -1.51163,3.51563 -2.6689,3.51563 -1.60333,0 -1.59003,-0.29265 0.25232,-5.55162 z M 170.625,361.37327 c 0,-0.79158 -0.65878,-2.44466 -1.46395,-3.67352 -2.15624,-3.29083 -1.96347,-9.53246 0.39285,-12.71954 1.08066,-1.46168 2.24103,-4.38485 2.57861,-6.49593 1.26352,-7.90162 4.6375,-5.39682 4.45679,3.30866 l -0.12945,6.23584 2.29154,-2.29153 c 2.21707,-2.21707 2.26483,-2.54475 1.46986,-10.08312 -1.23639,-11.72424 0.60678,-20.2011 3.71631,-17.09157 0.86569,0.86569 0.87689,2.36776 0.0486,6.51562 -1.05032,5.25935 -0.73823,10.12584 0.70664,11.01881 0.39538,0.24435 1.00872,-1.87561 1.36298,-4.71103 0.3984,-3.18874 1.4435,-6.13509 2.73968,-7.72376 1.78804,-2.19152 2.0699,-3.56593 1.92065,-9.36533 -0.0962,-3.73828 0.18067,-6.79687 0.61529,-6.79687 1.85724,0 3.04244,4.75399 3.08928,12.39157 0.0354,5.75824 0.4071,8.32647 1.25231,8.6508 0.66113,0.25371 1.20207,1.17272 1.20207,2.04225 0,1.41831 0.20383,1.39723 1.98108,-0.20494 1.79027,-1.61393 1.91354,-2.37281 1.2799,-7.87968 -0.38565,-3.35156 -0.79131,-9.89063 -0.90147,-14.53125 -0.11017,-4.64063 -0.53636,-9.66036 -0.94708,-11.15496 -1.08358,-3.94299 1.14707,-2.27114 3.2567,2.44088 1.25663,2.80677 1.4667,4.54873 0.86225,7.14996 -1.5562,6.69706 -0.25704,7.90168 2.95071,2.73599 2.32536,-3.7447 1.78062,-8.10188 -1.56057,-12.4824 -2.81176,-3.6864 -4.25986,-8.38707 -3.50737,-11.3852 0.78559,-3.13003 2.30641,-2.23598 3.60471,2.11912 0.60693,2.03589 1.8996,5.17817 2.87261,6.98286 0.97301,1.80469 2.01048,5.8125 2.30551,8.90625 0.5205,5.45829 0.57369,5.55023 1.79495,3.10227 1.52585,-3.05852 0.10893,-10.00341 -2.79382,-13.69368 -2.11326,-2.68655 -2.42399,-9.16072 -0.75737,-15.77948 0.81058,-3.21911 0.79502,-5.13597 -0.065,-8.00641 -0.6219,-2.0757 -0.85423,-4.04933 -0.51629,-4.38585 1.13532,-1.13056 4.20288,3.78468 4.21738,6.75763 0.008,1.61866 0.40079,3.55383 0.87309,4.30038 1.47201,2.32673 2.24496,-3.1724 0.98325,-6.99538 -1.30956,-3.96805 -0.45698,-5.48575 1.57181,-2.79801 1.06669,1.41315 1.28477,3.33613 0.88746,7.8256 -0.45741,5.16878 -0.34517,5.8014 0.8529,4.80709 0.75881,-0.62974 1.37964,-1.55414 1.37964,-2.05421 0,-0.50006 0.84375,-1.98187 1.875,-3.29288 2.91012,-3.69966 1.48613,-15.25582 -1.87991,-15.25582 -1.3197,0 -4.97211,-8.14813 -4.2072,-9.38581 1.06505,-1.72327 2.28628,-0.94086 4.04094,2.58893 0.96119,1.9336 2.90676,5.625 4.32347,8.20313 2.29453,4.17556 2.53169,5.41882 2.17151,11.38378 -0.42691,7.07019 -0.51303,6.99271 3.61508,3.25225 0.99052,-0.89751 1.36161,-2.70936 1.19558,-5.8375 -0.13241,-2.49481 0.0226,-4.79939 0.3445,-5.12129 1.068,-1.06799 2.67369,7.07614 2.05029,10.39915 -0.90244,4.81044 1.00948,4.04439 2.41247,-0.96661 1.0429,-3.72486 0.96282,-4.91295 -0.66602,-9.8809 -2.19538,-6.69594 -1.26595,-8.21012 1.51428,-2.46695 2.98273,6.16152 2.12445,15.42966 -2.20399,23.80005 -1.4736,2.84967 -1.45228,3.21634 0.42683,7.34125 1.33442,2.92923 1.78233,5.23217 1.37678,7.07864 -0.62874,2.86261 0.26163,3.5231 2.17286,1.61188 1.77092,-1.77092 1.31748,-7.82299 -0.9057,-12.08825 -1.60802,-3.08505 -1.80379,-4.2131 -0.94055,-5.4195 C 236.10622,279.66352 240,271.57705 240,270.2933 c 0,-0.67694 0.42187,-1.2308 0.9375,-1.2308 2.03042,0 -1.33379,-17.51631 -3.78121,-19.6875 -1.60871,-1.42714 -6.83331,-13.12763 -6.14867,-13.76991 0.44637,-0.41873 1.01982,-0.17426 1.27435,0.54329 0.25454,0.71755 1.88274,2.87636 3.61825,4.79735 1.7355,1.92099 4.67745,6.81829 6.53765,10.88287 3.57866,7.81938 3.65891,8.87294 1.74122,22.8589 -0.42722,3.1158 -0.31757,3.8511 0.41938,2.8125 0.5488,-0.77344 1.00428,-2.3094 1.01218,-3.41325 0.008,-1.10384 0.84884,-3.84603 1.86876,-6.09375 3.17055,-6.98727 0.91751,-15.06484 -7.24675,-25.98098 -1.29339,-1.72934 -2.84293,-5.07027 -3.44346,-7.42429 -1.6641,-6.52329 -6.00113,-7.91701 -8.03007,-2.58051 -1.28866,3.38945 -3.48348,2.92268 -5.39731,-1.14785 -1.46674,-3.11958 -2.12764,-3.57706 -5.86675,-4.06101 -8.43821,-1.09215 -13.12007,-5.90237 -13.12007,-13.47976 0,-4.86243 -2.41242,-4.35559 -3.16891,0.66577 -1.44745,9.60779 -1.77448,11.06312 -2.60074,11.57378 -1.54482,0.95475 -3.35463,-1.4264 -3.95958,-5.20955 -0.85782,-5.36447 -2.13061,-5.37264 -2.8409,-0.0183 -0.69311,5.22496 -2.25934,6.03161 -4.64417,2.3919 -2.38446,-3.63915 -2.95206,-9.52692 -1.25289,-12.99644 0.80998,-1.65388 1.69726,-3.74534 1.97176,-4.64768 1.07671,-3.53947 2.67925,-1.66257 2.20126,2.57812 -0.35056,3.11014 -0.1502,4.21875 0.76242,4.21875 3.38214,0 5.49776,-8.86757 3.15845,-13.2386 -1.65136,-3.0856 -0.4567,-4.09709 1.4329,-1.21319 0.96553,1.47358 1.95589,4.7647 2.20081,7.31359 0.4013,4.17643 0.57101,4.46245 1.71745,2.8946 1.97343,-2.69884 1.59419,-9.15661 -0.70973,-12.08559 -2.67161,-3.39638 -1.3678,-4.3872 1.58404,-1.20378 1.29179,1.39313 3.15401,2.53297 4.13825,2.53297 2.14854,0 7.33324,5.24968 8.10158,8.20313 0.72598,2.79054 2.04173,2.67933 2.77303,-0.23438 0.61204,-2.43859 1.73351,-3.01655 2.72872,-1.40625 0.31868,0.51563 1.36983,0.9375 2.3359,0.9375 2.38197,0 3.10975,2.84276 2.36673,9.2446 -0.57845,4.98393 -0.44338,5.54022 1.91853,7.90213 3.47309,3.4731 4.48043,3.19089 2.22928,-0.62453 -1.0924,-1.85149 -1.8205,-4.67264 -1.75418,-6.79687 0.0623,-1.99737 0.10045,-5.67018 0.0847,-8.1618 -0.0233,-3.67152 0.24089,-4.42677 1.39374,-3.98438 0.78235,0.30022 2.23171,0.54585 3.22079,0.54585 1.28791,0 1.79832,0.65795 1.79832,2.31812 0,2.86309 4.55733,12.69078 6.17241,13.31054 2.87242,1.10226 2.36122,3.37495 -0.6248,2.77774 l -2.92357,-0.58471 2.90673,2.71529 c 1.5987,1.49341 2.90673,3.13757 2.90673,3.65369 0,0.51613 1.26804,1.38045 2.81787,1.92072 3.11936,1.08742 4.73742,4.20237 5.04669,9.71547 0.25319,4.51341 1.16774,5.36764 1.9472,1.81877 0.55809,-2.54092 0.12475,-7.34416 -1.04868,-11.62411 -0.86979,-3.17247 2.37113,-0.62866 4.88295,3.83264 2.01387,3.57688 2.37714,5.21059 2.0128,9.05209 -0.39182,4.13128 1.96966,12.41422 2.67282,9.375 3.54664,-15.32923 -5.96521,-38.75219 -10.56471,-26.01562 -0.82739,2.29115 -2.93561,1.11328 -5.33478,-2.98058 -1.33842,-2.28385 -3.02519,-4.74414 -3.74837,-5.46733 -1.2348,-1.23476 -4.3088,-9.08855 -4.3088,-11.00853 0,-1.82252 2.72024,0.26485 3.58759,2.75292 1.08097,3.10089 6.61494,8.52042 8.59991,8.42207 1.25,-0.062 1.25,-0.12713 0,-0.58675 -2.35113,-0.86449 -4.68716,-3.2889 -4.69328,-4.87083 -0.003,-0.82242 -0.63599,-2.7037 -1.40625,-4.18061 -0.77025,-1.47691 -1.40047,-3.00261 -1.40047,-3.39045 0,-1.15042 13.36087,0.0715 16.32406,1.49291 3.22896,1.5489 3.78393,1.29749 2.1297,-0.96479 -0.83485,-1.14173 -3.24899,-1.90848 -7.72469,-2.45341 -9.7546,-1.18765 -13.90535,-2.96422 -14.49894,-6.20571 -0.29526,-1.6123 -0.76023,-2.23797 -1.17493,-1.58099 -0.37745,0.598 -0.42884,1.75815 -0.11419,2.57813 1.17224,3.05481 -2.54209,1.4779 -3.84093,-1.63066 -1.4301,-3.42271 -4.22508,-6.35434 -4.22508,-4.43165 0,0.61266 0.45606,1.96607 1.01346,3.00759 1.55993,2.91476 0.819,2.86422 -6.84349,-0.4668 -10.30122,-4.47812 -11.80343,-5.65317 -12.45955,-9.74616 -0.72334,-4.51228 -2.96074,-9.61647 -4.21535,-9.61647 -2.32031,0 -3.03629,4.38839 -1.54563,9.47351 2.21229,7.54686 -1.6415,8.44402 -7.09916,1.65268 -4.18205,-5.20399 -6.79373,-4.87026 -4.32299,0.55241 1.28061,2.81065 0.48696,4.08152 -1.51257,2.42206 -1.16399,-0.96603 -1.92468,-0.64743 -4.4257,1.85359 -2.75287,2.75288 -2.87938,3.12304 -1.42957,4.18317 3.95906,2.89493 -0.0331,5.12468 -4.37452,2.44329 -4.09825,-2.5312 -9.6536,-1.49759 -9.19301,1.71042 0.21003,1.46289 -0.0442,1.94451 -0.7848,1.48679 -0.6025,-0.37236 -0.88738,-1.47275 -0.63306,-2.44529 0.25433,-0.97254 0.0802,-2.00451 -0.38707,-2.29327 -0.46722,-0.28876 -0.84949,0.21191 -0.84949,1.11259 0,0.90069 -1.9854,4.16471 -4.412,7.25337 -4.27201,5.4376 -6.75632,12.40042 -6.81846,19.1103 -0.0259,2.79836 1.29434,2.68036 2.62238,-0.23437 1.61862,-3.5525 2.97941,-2.81184 3.01427,1.64062 l 0.0312,3.98438 1.84381,-2.21323 c 1.01409,-1.21729 1.84381,-3.16954 1.84381,-4.33834 0,-1.1688 0.63281,-2.65028 1.40625,-3.29218 1.19499,-0.99176 1.40289,-0.76254 1.38388,1.52584 -0.0508,6.1215 -1.72253,10.09186 -5.85309,13.90145 -7.05903,6.51051 -10.99676,18.57377 -7.11461,21.79567 1.08573,0.90108 1.32699,0.19056 1.4404,-4.24218 C 156.41094,244.69285 157.80913,240 159.38551,240 c 0.67562,0 0.78669,2.75134 0.34648,8.58274 -0.48237,6.38984 -0.37121,8.41173 0.43507,7.91342 0.59563,-0.36812 1.10971,-1.59364 1.1424,-2.72337 0.0567,-1.96121 0.0911,-1.9693 0.76015,-0.17904 0.38541,1.03125 0.67338,6.94892 0.63995,13.15037 l -0.0608,11.27537 1.96463,-2.89505 c 5.42701,-7.99715 5.53985,-14.13012 0.4126,-22.42616 -2.35883,-3.81669 -1.72806,-8.56755 2.0256,-15.2566 4.92587,-8.77791 6.69268,-7.87944 3.66137,1.8619 l -2.11296,6.79017 1.83945,8.4375 c 1.01168,4.64062 1.63037,9.80859 1.37485,11.48437 -0.60961,3.998 1.85858,4.19281 3.48148,0.2748 1.13945,-2.75086 0.6166,-6.8315 -1.97506,-15.41469 -1.48387,-4.91438 -0.90485,-8.50191 2.1418,-13.27031 1.62937,-2.55017 3.22869,-5.9023 3.55406,-7.44917 0.65396,-3.10915 3.10713,-3.82191 3.63951,-1.05744 0.1859,0.96528 -0.28592,3.2856 -1.04848,5.15625 -3.12283,7.66072 -4.46689,14.02826 -3.81785,18.08718 0.35705,2.23287 0.76801,3.63884 0.91324,3.12438 0.14523,-0.51445 0.94828,-3.36115 1.78456,-6.326 2.05526,-7.28648 3.6976,-7.09601 2.85729,0.33137 -0.5184,4.58201 -0.34828,6.05248 0.85388,7.38086 1.38699,1.53261 1.3557,1.69693 -0.41122,2.15898 -1.27082,0.33234 -1.91249,1.27351 -1.91249,2.80522 0,1.2678 -0.78726,3.3112 -1.74947,4.54089 -1.96975,2.51731 -8.33253,12.75217 -12.75501,20.51706 -2.95935,5.19596 -9.24175,20.02972 -10.32332,24.375 -4.68365,18.81685 -34.0676,22.49306 -43.11625,5.39425 -4.81737,-9.10318 -15.145436,-9.50379 -18.658511,-0.72374 -2.669837,6.67257 -1.668692,8.51544 3.389063,6.23844 7.115518,-3.20341 12.721278,-2.13133 18.748348,3.58559 2.9869,2.83317 13.97581,6.50401 17.50664,5.84806 1.33499,-0.24801 3.79836,-0.8893 5.47414,-1.42507 7.06604,-2.25915 1.4158,2.36115 -6.32813,5.17462 -7.44335,2.70426 -10.84508,1.55762 -19.34179,-6.51966 l -3.87305,-3.68186 -4.55043,1.28522 c -5.41622,1.52975 -7.235359,4.19486 -6.467041,9.47447 0.883011,6.06775 4.352541,9.50781 5.795851,5.74662 1.21638,-3.16985 11.21151,-5.4555 16.18433,-3.70099 8.86497,3.12773 18.28251,2.206 23.47523,-2.29762 1.20384,-1.04408 2.76064,-1.89833 3.45954,-1.89833 3.57336,0 -5.60502,7.80862 -10.53012,8.95863 -1.51044,0.35269 -3.24687,1.26754 -3.85872,2.03299 -0.61186,0.76545 -1.66655,1.19178 -2.34375,0.9474 -0.67721,-0.2444 -1.93658,0.16893 -2.79859,0.9185 -1.3961,1.21398 -1.73567,1.10588 -3.10873,-0.98969 -4.56187,-6.96217 -15.4803,-4.27495 -15.4803,3.80997 0,6.02142 15.53228,9.87372 19.00192,4.71282 0.77997,-1.16015 1.77998,-1.75847 2.22225,-1.3296 0.44227,0.42888 -0.008,1.37374 -1.00095,2.0997 -0.99281,0.72595 -1.56927,1.55574 -1.28103,1.84397 1.07154,1.07155 5.51738,-0.78919 6.50341,-2.72191 1.4865,-2.91368 9.43427,-10.90778 10.84458,-10.90778 0.66243,0 2.88898,-1.5219 4.94789,-3.38199 2.88014,-2.60204 3.86554,-3.06385 4.27283,-2.00247 0.63432,1.65301 -3.05836,9.08885 -4.58993,9.2426 -0.59248,0.0594 -1.4991,0.20616 -2.01472,0.32596 -0.51563,0.11979 -1.61418,0.28207 -2.44123,0.36061 -5.18604,0.49247 -8.39491,9.9232 -4.2696,12.54816 6.71093,4.2702 15.48129,-2.84281 14.10643,-11.44072 -0.50535,-3.16031 -0.27834,-3.79028 1.87407,-5.20059 1.8121,-1.18734 2.44908,-2.40023 2.44908,-4.66334 0,-3.15996 2.01758,-5.76517 3.67262,-4.74229 1.79407,1.1088 2.20678,6.75679 0.6656,9.10892 -3.18277,4.85751 -3.02821,12.26142 0.33594,16.09297 3.2358,3.68538 4.70084,4.30883 4.70084,2.00045 z m 2.8125,-38.5139 c 0,-2.16574 0.3335,-3.20006 0.85644,-2.65625 1.37802,1.43301 1.5919,5.36818 0.31543,5.80349 -0.80142,0.27331 -1.17187,-0.72159 -1.17187,-3.14724 z m 61.59877,-70.14453 c -1.72566,-1.72566 -2.10075,-3.33984 -0.77606,-3.33984 1.27681,0 3.14656,2.62343 2.7397,3.84404 -0.2453,0.73588 -0.88878,0.57067 -1.96364,-0.5042 z m -10.66065,-4.54494 c -4.18582,-2.34715 -13.08717,-15.50367 -11.02481,-16.29507 1.60463,-0.61575 5.08669,2.15784 5.08669,4.05172 0,0.69352 0.42187,1.26095 0.9375,1.26095 0.51562,0 0.9375,-0.84375 0.9375,-1.875 0,-3.80111 2.53995,-1.69101 5.92448,4.92187 4.6515,9.08833 4.13342,11.29704 -1.86136,7.93553 z M 170.625,225.37606 c 0,-2.37129 -0.68619,-5.75749 -1.52488,-7.52488 -1.73369,-3.65351 -1.38618,-7.50159 1.17949,-13.06039 l 1.70636,-3.69704 0.55111,7.96875 c 0.3031,4.38281 0.6297,6.22731 0.72576,4.09886 0.38705,-8.57579 4.86216,-13.83829 4.86216,-5.71764 0,3.68185 0.0883,3.80724 1.61002,2.28555 1.11636,-1.11637 1.55375,-2.90266 1.42653,-5.8259 -0.10092,-2.31873 0.21014,-4.21587 0.69125,-4.21587 1.48964,0 2.23207,6.67807 1.09273,9.82888 -0.5888,1.62827 -1.0769,3.98523 -1.08468,5.23768 -0.0148,2.38647 -8.6634,14.93344 -10.29356,14.93344 -0.51826,0 -0.94229,-1.94015 -0.94229,-4.31144 z m 408.51562,134.37663 c 3.47705,0.13011 3.57058,-0.14531 1.62805,-4.79445 -1.77522,-4.24871 -1.85352,-4.24129 -6.21049,0.58863 -4.2728,4.73663 -4.51333,5.85393 -1.04256,4.84285 1.41797,-0.41308 3.94922,-0.69974 5.625,-0.63703 z m -469.06105,-0.32174 c 2.44521,-0.93832 1.67832,-2.98905 -1.36797,-3.65814 -3.03196,-0.66592 -5.5866,0.67652 -5.5866,2.93573 0,1.34555 4.1951,1.78132 6.95457,0.72241 z m 286.3797,-15.71281 c 0.8071,-0.9725 0.73614,-1.55384 -0.29404,-2.40882 -1.58244,-1.3133 -4.66728,-0.0595 -5.55676,2.25839 -0.71844,1.87222 4.31445,2.00162 5.8508,0.15043 z M 95.877525,341.95312 c 0.663534,-1.90222 -0.328134,-3.51562 -2.160863,-3.51562 -1.79992,0 -4.654162,2.34082 -4.654162,3.81697 0,1.32154 6.346819,1.0409 6.815025,-0.30135 z m 409.864425,-6.2043 c 0.65993,-2.07924 -0.91192,-6.68632 -2.28125,-6.68632 -1.10656,0 -1.20042,1.37952 -0.37476,5.50781 0.65824,3.29121 1.82163,3.80742 2.65601,1.17851 z m -109.35156,-8.80371 c 0.34677,-3.00432 -4.35008,-3.69943 -7.7282,-1.14373 -2.07672,1.57114 -1.99176,1.71549 1.80656,3.06955 4.09376,1.45938 5.58697,0.97376 5.92164,-1.92582 z m 179.6179,-1.03801 c 1.07651,-5.73833 -3.09991,-8.35669 -10.67542,-6.69282 -3.91794,0.86052 -3.55064,1.81937 1.42481,3.71951 2.34173,0.89432 4.9215,2.63913 5.73283,3.87737 1.99538,3.04534 2.81645,2.83432 3.51778,-0.90406 z M 89.827896,322.74239 c -0.390711,-3.38508 -2.780991,-3.75096 -6.619351,-1.01321 l -3.052295,2.17707 3.28125,0.57971 c 6.380399,1.12725 6.711329,1.03696 6.390396,-1.74357 z M 512.8125,318.92918 c 0,-2.08459 -1.79282,-4.41316 -3.98438,-5.17501 -2.10827,-0.7329 -2.16867,1.44339 -0.12655,4.56006 1.77096,2.70282 4.11093,3.05286 4.11093,0.61495 z m 5.65295,-0.12697 c -1.00704,-1.88166 -2.84045,-3.4241 -2.84045,-2.38966 0,1.288 1.99835,4.21245 2.87847,4.21245 0.61196,0 0.59876,-0.63294 -0.0381,-1.82279 z m -110.65295,-2.792 c 0,-2.53388 -1.99189,-3.82271 -5.908,-3.82271 l -3.658,0 3.61112,3.66322 c 3.67517,3.72819 5.95488,3.78925 5.95488,0.15949 z m -195.67384,0.89528 c 0.2653,-1.01448 2.00201,-2.56918 3.85935,-3.45489 1.85734,-0.8857 3.37699,-1.89251 3.37699,-2.23734 0,-0.34483 1.05469,-1.76499 2.34375,-3.15592 3.28404,-3.54354 1.20842,-12.37634 -3.70499,-15.76651 -1.263,-0.87145 -2.30106,4.79848 -1.27139,6.94441 2.03575,4.24274 0.0654,10.68599 -4.89634,16.01183 -1.9676,2.11196 -2.37178,3.50293 -1.01787,3.50293 0.45548,0 1.04522,-0.83003 1.3105,-1.84451 z M 516.2116,306.06282 c -0.58248,-1.51795 -5.2741,-1.92331 -5.2741,-0.45568 0,0.5058 1.05469,1.18434 2.34375,1.50788 1.28906,0.32354 2.37706,1.06985 2.41777,1.65849 0.046,0.66582 0.25659,0.61572 0.55718,-0.13256 0.26574,-0.66154 0.24567,-1.8217 -0.0446,-2.57813 z m -264.0241,-8.35124 c 0,-2.73658 -1.44746,-3.92797 -2.24552,-1.84827 -0.96212,2.50726 -0.63154,4.13669 0.83927,4.13669 0.86593,0 1.40625,-0.87927 1.40625,-2.28842 z m -22.5,-0.50511 c 0,-1.02081 -0.68324,-3.56361 -1.51831,-5.65065 -0.89661,-2.24086 -1.29008,-4.93574 -0.96094,-6.58147 0.71834,-3.59168 -0.70432,-3.60516 -2.18904,-0.0207 -0.98747,2.38397 -0.84195,3.54962 1.05336,8.4375 2.22541,5.73916 3.61493,7.20572 3.61493,3.81535 z m 16.26571,-1.89437 c 0.52275,-2.61379 -0.59209,-7.4996 -1.71126,-7.4996 -0.27057,0 -0.49195,2.32031 -0.49195,5.15625 0,5.55473 1.28713,6.92374 2.20321,2.34335 z M 496.875,293.38477 c -2.74411,-2.20822 -9.375,-5.83139 -9.375,-5.12257 0,0.93011 3.5667,4.04824 6.22988,5.44636 4.01627,2.10847 5.92363,1.91211 3.14512,-0.32379 z M 215.625,285.75 c 0,-3.36826 -0.3007,-4.5743 -0.9729,-3.9021 -0.86746,0.86746 -0.30516,8.7771 0.62397,8.7771 0.19191,0 0.34893,-2.19375 0.34893,-4.875 z m -5.53072,-0.80846 c -0.86628,-2.16853 -0.91597,-2.18143 -0.97235,-0.25259 -0.0829,2.8359 1.1798,6.01787 1.58836,4.00259 0.16332,-0.8056 -0.11388,-2.4931 -0.61601,-3.75 z m 216.74762,2.85845 c 2.7022,-1.59433 3.45642,-2.83817 4.8559,-8.00825 1.49269,-5.5145 2.01688,-6.30447 5.29201,-7.97531 4.22971,-2.15784 4.87082,-4.03226 1.05707,-3.09056 -5.50349,1.35892 -9.08744,4.52664 -10.31524,9.11725 -1.28558,4.80663 -3.64961,7.37973 -7.43668,8.09438 -2.96263,0.55906 -3.90343,2.4756 -1.51872,3.09377 3.34437,0.86692 4.91617,0.62698 8.06566,-1.23128 z m 70.74815,0.71563 c -0.20828,-0.64453 -1.88455,-2.01562 -3.72503,-3.04687 -1.84048,-1.03125 -4.65835,-2.85294 -6.26192,-4.04821 -4.03437,-3.00711 -3.668,-1.18166 0.50417,2.5121 5.27925,4.67389 10.29561,7.09828 9.48278,4.58298 z M 510,285.05533 c 0,-1.71605 -1.5648,-3.49054 -2.36894,-2.6864 -0.64393,0.64394 0.67666,4.50607 1.54078,4.50607 0.45549,0 0.82816,-0.81885 0.82816,-1.81967 z m -351.5625,-2.34375 c 0,-1.25863 -0.42486,-2.551 -0.94412,-2.87193 -1.1866,-0.73336 -2.24984,1.87655 -1.52935,3.7541 0.85118,2.21815 2.47347,1.63956 2.47347,-0.88217 z m 324.29688,1.05526 C 479.0608,280.98633 468.66817,273.75 468.34844,273.75 c -0.23665,0 -4.4493,-2.35298 -9.36143,-5.22884 -4.91214,-2.87586 -9.37248,-4.95609 -9.91187,-4.62272 -1.76692,1.09201 0.0409,2.41456 10.67451,7.80918 5.77153,2.928 13.1792,7.11852 16.46149,9.31229 4.38228,2.92895 9.75012,5.18934 6.52324,2.74693 z M 266.25,281.59314 c 0,-1.35814 0.47721,-4.06211 1.06045,-6.00882 1.14098,-3.80824 0.43277,-8.73831 -1.17812,-8.20135 -1.25252,0.41751 -2.00871,16.67953 -0.7756,16.67953 0.4913,0 0.89327,-1.11121 0.89327,-2.46936 z m -7.44011,-2.10624 c 1.52311,2.84595 3.14653,0.0658 2.27599,-3.89771 -0.79892,-3.63749 -2.2344,-3.46012 -5.36158,0.66252 -2.7803,3.66533 -2.49085,6.69546 0.30926,3.23747 l 1.67229,-2.06519 1.10404,2.06291 z m 36.45348,-0.0868 c 1.9944,-1.01747 3.77055,-2.27967 3.94702,-2.80488 0.17648,-0.52522 2.40951,-1.20024 4.96229,-1.50004 2.55279,-0.2998 5.71685,-1.1301 7.03125,-1.84509 4.10188,-2.2313 0.96271,-1.78118 -11.67268,1.67376 -2.0625,0.56396 -4.80469,1.95449 -6.09375,3.09007 -1.28906,1.13557 -2.97656,2.29495 -3.75,2.57638 -1.0922,0.39743 -1.03151,0.52823 0.27172,0.58571 0.92289,0.0407 3.30975,-0.75845 5.30415,-1.77591 z m 206.76158,-2.84454 c -1.82334,-2.01476 -7.43329,-5.16219 -6.49497,-3.64396 0.51921,0.84011 6.9585,5.34584 7.81845,5.47078 0.20882,0.0304 -0.38675,-0.79173 -1.32348,-1.82682 z m -348.72258,-3.4914 c -0.36096,-1.9241 -1.14619,-4.34988 -1.74496,-5.39062 -1.51053,-2.62553 -2.08594,2.68927 -0.68897,6.36361 1.48083,3.89488 3.21695,3.20085 2.43393,-0.97299 z m -22.98987,-0.77573 c 0,-1.98565 -0.37958,-3.10198 -0.9375,-2.75717 -0.51563,0.31867 -0.9375,1.82014 -0.9375,3.33658 0,1.51644 0.42187,2.75717 0.9375,2.75717 0.51562,0 0.9375,-1.50146 0.9375,-3.33658 z m 146.05544,-5.02611 c -0.45859,-8.50125 -2.62363,-7.25674 -2.58813,1.48769 0.0275,6.7561 0.14315,7.19377 1.44607,5.46949 0.9588,-1.26887 1.32769,-3.51604 1.14206,-6.95718 z m 200.78608,7.101 c -2.96041,-2.72087 -8.72576,-5.70925 -7.79055,-4.03812 0.87585,1.56506 6.50691,5.1417 8.2593,5.24601 0.4972,0.0296 0.28627,-0.51396 -0.46875,-1.20789 z m -330.42368,-2.72269 c -0.37171,-1.16015 -0.88398,-3.58593 -1.13837,-5.39062 -0.25439,-1.80469 -0.96626,-3.70313 -1.58193,-4.21875 -1.58694,-1.32908 -4.32254,-8.94868 -4.32254,-12.0398 0,-1.43116 -0.35629,-2.38191 -0.79176,-2.11277 -1.11134,0.68685 0.7059,11.97853 2.20224,13.68382 0.67866,0.77344 1.9345,3.83203 2.79075,6.79687 0.85624,2.96485 1.99796,5.39063 2.53714,5.39063 0.59187,0 0.71251,-0.83582 0.30447,-2.10938 z m 134.90637,-6.90447 c -0.91892,-4.89828 -2.46572,-3.333 -2.4558,2.48516 0.0121,7.09401 0.15894,7.42817 1.70676,3.88376 0.85701,-1.96249 1.13394,-4.31722 0.74904,-6.36892 z m -10.63088,-1.58769 c -0.52769,-1.3879 -1.44566,-2.52346 -2.03995,-2.52346 -1.28459,0 -0.51448,6.05618 1.2747,10.02424 l 1.16567,2.58523 0.2795,-3.78127 c 0.15372,-2.0797 -0.15224,-4.91683 -0.67992,-6.30474 z m 15.27827,7.55466 c 1.00502,-3.7502 0.6259,-9.67189 -0.7387,-11.53809 -2.08983,-2.85801 -2.56895,-1.19142 -1.87117,6.5088 0.65068,7.18039 1.56251,8.93753 2.60987,5.02929 z m 194.23723,0.31946 c -0.72496,-1.17301 -10.25651,-7.58508 -11.27522,-7.58508 -0.39385,0 -4.06269,-2.20781 -8.15298,-4.90625 -8.11415,-5.35304 -8.51051,-7.2586 -0.5677,-2.72938 16.09226,9.1763 23.82834,11.85281 11.14168,3.85479 -3.65363,-2.30336 -8.85416,-5.59823 -11.55674,-7.32196 -4.64458,-2.96236 -5.04327,-3.05548 -7.2777,-1.6997 -4.11786,2.49858 -2.99848,4.50146 4.79736,8.58375 3.93871,2.0625 10.6663,5.9521 14.9502,8.64355 7.36088,4.62464 9.33058,5.40852 7.9411,3.16028 z m 22.3077,0.35763 c -0.54136,-1.41077 -3.22635,-3.25965 -4.72052,-3.25055 -0.61077,0.004 4.31612,4.5259 5.0652,4.64913 0.11271,0.0186 -0.0424,-0.61082 -0.34468,-1.39858 z m -377.99358,-5.83392 c 0.22707,-3.48427 -0.0216,-4.92228 -0.85107,-4.92187 -0.81143,4e-4 -1.17188,1.78839 -1.17188,5.81308 0,6.98827 1.55406,6.30364 2.02295,-0.89121 z m 11.75454,0.79471 c -1.77759,-3.24525 -1.85934,-3.92973 -0.7229,-6.05319 1.03953,-1.94238 1.07412,-3.41911 0.18328,-7.82537 -1.61121,-7.96935 -2.88561,-17.9602 -2.9068,-22.78818 -0.0102,-2.32759 -0.86232,-6.54038 -1.89357,-9.36176 -1.03125,-2.82138 -1.875,-5.17089 -1.875,-5.22114 0,-0.0503 -1.29644,-0.0914 -2.88098,-0.0914 -2.46805,0 -2.8032,0.27995 -2.33831,1.95313 0.95715,3.44488 3.17934,18.60088 3.8103,25.9875 0.33635,3.93766 1.21118,9.2111 1.94404,11.71875 1.62443,5.55828 1.26987,-10.25059 -0.42339,-18.87813 -1.49127,-7.5983 -2.16616,-17.56534 -1.14674,-16.93531 1.56916,0.96979 4.78212,19.94462 4.79086,28.29341 0.003,3.05043 0.62967,6.71314 1.40127,8.1926 1.50105,2.87808 1.164,4.35555 -0.99363,4.35555 -2.43065,0 -1.61649,5.30287 1.21762,7.93081 3.61162,3.34887 4.1591,2.96756 1.83395,-1.2773 z m 159.81073,2.01837 c 0.65858,-7.16853 0.32843,-18.18279 -0.45665,-15.23437 -1.39048,5.22211 -1.87775,16.875 -0.70563,16.875 0.55636,0 1.07939,-0.73828 1.16228,-1.64063 z m 170.1823,-0.57869 c -10.34895,-6.47128 -14.43701,-9.12025 -15.48898,-10.03651 -0.95084,-0.82819 -1.51134,-0.8167 -2.34375,0.0481 -1.35312,1.40572 0.37312,2.6924 10.9568,8.16682 6.65249,3.441 11.53371,4.73418 6.87593,1.82163 z m -209.16661,-6.4471 c 0.95157,-2.99813 -1.33855,-7.97009 -3.97599,-8.63204 -3.32927,-0.83559 -3.45329,-0.45486 -1.64883,5.06196 1.25121,3.82534 1.36101,5.33648 0.52161,7.17875 -0.58476,1.28341 -1.0632,2.76154 -1.0632,3.28472 0,1.32491 5.51465,-4.83987 6.16641,-6.89339 z m 34.11758,-0.47421 c -0.0198,-5.03769 -0.30123,-6.79881 -0.91789,-5.74328 -1.61801,2.76953 -1.61101,13.00891 0.009,13.00891 0.54681,0 0.92562,-3.02787 0.90899,-7.26563 z m 45.96703,4.64082 c 1.14607,-0.92802 1.93108,-2.4316 1.74449,-3.34128 -0.28024,-1.36622 -0.90131,-1.07268 -3.57004,1.68732 -3.46897,3.5876 -2.09721,4.83041 1.82555,1.65396 z m 100.50076,-0.98367 c 1.39317,-0.54875 3.22864,-2.34288 4.07882,-3.98695 l 1.54579,-2.98923 -3.14132,0.71118 c -1.72773,0.39116 -6.51632,1.21237 -10.64132,1.82494 -4.125,0.61256 -8.76563,1.79404 -10.3125,2.62551 l -2.8125,1.51175 2.53888,0.64118 c 1.8307,0.46233 3.30932,0.0925 5.30097,-1.32562 3.24725,-2.31224 5.63787,-2.52657 6.25207,-0.56053 0.24163,0.77344 0.6407,2.04862 0.88681,2.83373 0.32479,1.03612 0.90309,1.19229 2.10937,0.56963 0.91405,-0.47183 2.80177,-1.30684 4.19493,-1.85558 z m 46.65174,-6.70491 c -2.30162,-2.06299 -7.77071,-5.52733 -12.15352,-7.69854 -4.38281,-2.1712 -8.70703,-4.5565 -9.60938,-5.30066 -1.44172,-1.18898 -1.64062,-1.17258 -1.64062,0.13536 0,0.8186 0.94922,1.78086 2.10937,2.13834 2.04667,0.63065 7.29551,3.75534 18.3282,10.91096 7.00657,4.54435 8.16226,4.47208 2.96595,-0.18546 z M 108.3058,257.54258 c 0.72708,-3.87568 -1.25245,-26.14019 -2.43075,-27.33946 C 105.33167,229.65007 105,231.55363 105,235.2253 c 0,4.87066 -0.24786,5.8177 -1.40625,5.37317 -1.09883,-0.42166 -1.40625,0.24366 -1.40625,3.04343 0,1.97068 -0.27104,6.17619 -0.60231,9.34558 -0.70998,6.79281 0.63222,7.70191 2.27927,1.54377 0.62059,-2.32031 1.50266,-4.21875 1.96015,-4.21875 1.19818,0 2.00542,4.98976 0.97827,6.04687 -1.13682,1.17 -1.11532,4.26563 0.0296,4.26563 0.49226,0 1.15524,-1.38709 1.47328,-3.08242 z m 216.02692,-5.19883 c 0.079,-5.84426 -2.28624,-2.80368 -2.48861,3.19906 -0.18284,5.42278 -0.15675,5.48601 1.12958,2.73844 0.72421,-1.54688 1.33577,-4.21875 1.35903,-5.9375 z M 127.5,255.625 c 0,-0.6875 -0.28235,-1.53234 -0.62743,-1.87743 -0.3451,-0.34509 -0.6911,-2.41931 -0.7689,-4.60938 -0.49192,-13.8461 -3.72818,-32.4502 -6.04848,-34.7705 -1.33656,-1.33656 -1.26805,-0.19382 0.36397,6.07192 2.42942,9.32722 4.15205,30.49109 2.39334,29.40414 -0.51563,-0.31867 -0.9375,-2.17906 -0.9375,-4.13418 0,-4.17604 -1.85397,-10.073 -2.7242,-8.66494 -0.84839,1.37271 1.00008,16.41758 2.10901,17.16551 0.50265,0.33901 1.47596,0.4007 2.1629,0.13711 0.68694,-0.26361 1.50861,0.19729 1.82594,1.02423 0.69823,1.81957 2.25135,1.99446 2.25135,0.25352 z m 22.77164,-1.5625 c -0.26968,-1.03125 -1.07393,-1.875 -1.78723,-1.875 -1.59567,0 -1.6695,1.12741 -0.17191,2.625 1.67989,1.67989 2.51134,1.3616 1.95914,-0.75 z m -58.269271,-5.00485 c 1.768865,-3.56881 2.221865,-5.43103 1.59404,-6.55289 -1.446612,-2.58496 -2.242645,-1.82183 -3.499229,3.35461 -0.657134,2.70704 -1.398131,5.66016 -1.64666,6.5625 -0.945017,3.4311 1.182612,1.41586 3.551849,-3.36422 z m 180.619851,-2.93037 c -0.15316,-2.08095 -0.70035,-3.78353 -1.21597,-3.78353 -1.09551,0 -1.80653,8.42642 -0.89967,10.66213 0.9816,2.41999 2.44889,-2.35064 2.11564,-6.87861 z m 218.28148,4.70517 C 487.10664,247.453 471.61609,238.125 469.80107,238.125 c -2.42347,0 -0.69039,1.6417 4.8083,4.55478 3.22266,1.70729 8.8125,4.95645 12.42188,7.22036 7.94003,4.98023 8.59877,5.13881 3.87245,0.93231 z M 483.75,251.25 c -1.28906,-1.00832 -2.81523,-1.84268 -3.39148,-1.85415 -0.57625,-0.0114 -3.8788,-1.91929 -7.33899,-4.2396 -6.06533,-4.06724 -8.95703,-5.1551 -8.95703,-3.36962 0,0.46703 2.63672,2.11174 5.85937,3.65491 3.22266,1.54318 7.33594,3.88257 9.14063,5.19864 4.09355,2.98525 8.44863,3.55182 4.6875,0.60982 z m -340.2411,-5.65323 c -0.45584,-1.78916 -1.09559,-7.47177 -1.42165,-12.62802 -0.61967,-9.79919 -2.06741,-16.40625 -3.59493,-16.40625 -0.49669,0 -0.6372,1.1528 -0.31424,2.57812 0.56717,2.50316 4.26891,28.86789 4.30429,30.65625 0.0108,0.54405 0.37519,0.53307 0.93648,-0.0282 0.57256,-0.57256 0.6065,-2.14484 0.09,-4.17188 z m 318.10794,3.38197 c -0.70706,-1.84257 -3.17934,-2.66581 -3.17934,-1.05869 0,1.17555 1.23221,2.12231 3.01746,2.31843 0.37052,0.0407 0.44338,-0.52618 0.16188,-1.25974 z m -344.88065,-7.33812 c -1.63496,-17.31998 -4.60496,-31.64685 -6.22468,-30.02713 -0.50082,0.50082 -0.50749,1.97706 -0.0163,3.60194 1.38752,4.58981 2.80896,13.55914 3.48209,21.97207 0.59105,7.38691 1.57642,11.25 2.86958,11.25 0.29199,0 0.24218,-3.05859 -0.1107,-6.79688 z m 372.87588,2.76263 c -3.28191,-2.88866 -8.70798,-6.41185 -15.9402,-10.3501 -2.36046,-1.28537 -3.04687,-1.37441 -3.04687,-0.3952 0,0.69518 2.21484,2.41311 4.92187,3.81762 8.41872,4.36798 13.305,7.24005 14.73215,8.65927 0.75502,0.75084 1.70546,1.36516 2.11208,1.36516 0.40661,0 -0.84394,-1.39354 -2.77903,-3.09675 z m -377.45029,-0.41888 c -0.26797,-1.41796 -0.75289,-5.95312 -1.0776,-10.07812 -0.32472,-4.125 -0.99865,-9.08069 -1.49762,-11.01265 -0.49898,-1.93196 -0.93477,-5.8187 -0.96844,-8.63721 -0.0384,-3.22063 -0.55623,-5.53538 -1.39357,-6.23031 -2.18988,-1.81745 -2.56045,-0.25363 -1.29551,5.4672 0.65829,2.97714 1.35603,7.10047 1.55054,9.16297 0.74319,7.88004 2.35735,20.69452 2.80467,22.26562 0.7653,2.68799 2.40767,1.86791 1.87753,-0.9375 z m -28.150352,-2.66341 c 0.456523,-1.81893 0.07845,-2.93744 -1.505233,-4.45313 l -2.114885,-2.02408 0.548974,2.98096 c 0.340171,1.84715 0.143191,3.11621 -0.51789,3.33657 -1.408975,0.46966 -0.06133,2.58872 1.646323,2.58872 0.733183,0 1.607403,-1.09307 1.942711,-2.42904 z m 12.492019,-3.33853 c -0.95295,-2.30063 -0.982856,-3.10388 -0.126188,-3.38943 1.634738,-0.54492 1.373775,-8.67984 -0.585928,-18.26488 -1.531331,-7.48983 -1.380797,-10.65141 0.31246,-6.5625 1.28369,3.09986 4.146479,18.51856 4.177589,22.5 0.0176,2.25717 0.47877,3.98438 1.06377,3.98438 1.08982,0 0.51632,-9.25155 -1.12666,-18.17483 -1.135737,-6.16835 -1.099474,-8.70615 0.10716,-7.49952 0.68806,0.68806 3.72187,14.49645 3.73557,17.00247 7e-4,0.12891 0.36772,0.23438 0.8156,0.23438 1.0584,0 0.28976,-11.89339 -0.98338,-15.21618 -0.53946,-1.40795 -0.72186,-3.59178 -0.40533,-4.85293 0.64622,-2.57477 -1.19979,-3.82959 -10.67561,-7.25671 C 77.02499,194.77682 71.445443,188.81281 67.506997,173.4375 64.203296,160.54017 51.544774,155.42792 41.391735,162.89062 c -7.444588,5.47194 -7.205906,6.24899 1.691563,5.50696 11.081184,-0.92414 18.551249,3.67897 21.712602,13.37944 0.605703,1.85858 3.149413,5.8419 5.652689,8.85184 C 72.951865,193.63879 75,196.44064 75,196.85519 c 0,0.41454 1.651618,1.41457 3.670262,2.22227 4.163009,1.6657 5.523932,3.19101 3.529846,3.95622 -1.801938,0.69146 -6.977689,-1.54167 -10.544343,-4.54949 -1.581517,-1.33372 -3.94887,-2.69434 -5.260784,-3.02361 -3.968546,-0.99604 -8.777962,-5.64256 -9.974677,-9.63685 -1.547436,-5.16488 -4.295604,-8.31315 -8.388089,-9.60931 -1.925531,-0.60984 -3.997327,-1.73333 -4.603991,-2.49665 -2.408696,-3.03062 -10.702038,4.65264 -8.718036,8.07672 3.177286,5.48351 4.264049,6.11312 8.771459,5.08167 5.063086,-1.1586 5.681693,-0.8416 14.327834,7.34213 3.178027,3.00807 6.178611,5.46921 6.667965,5.46921 0.489353,0 2.443151,1.2345 4.341773,2.74334 1.898622,1.50883 5.964444,3.90323 9.035161,5.32088 5.150658,2.37788 7.406168,5.06078 4.254593,5.06078 -2.308256,0 -10.294801,-3.7826 -12.733973,-6.03108 -1.289063,-1.18828 -4.284515,-2.88185 -6.656561,-3.7635 -3.267847,-1.21459 -4.956827,-2.62184 -6.970814,-5.80805 -4.322333,-6.83812 -9.936286,-6.91468 -13.949884,-0.19022 -3.046062,5.10343 -0.114278,13.30936 3.641484,10.19236 1.996831,-1.65723 4.520909,-0.4854 3.806032,1.76698 -0.86218,2.71649 0.692691,3.09136 8.38469,2.02149 11.752618,-1.63463 22.995053,2.76528 22.995053,8.99949 0,2.3094 -0.11158,2.34813 -4.877562,1.69264 -5.64798,-0.7768 -11.997438,-3.79 -11.997438,-5.69352 0,-2.03177 -1.568627,-1.56017 -4.18081,1.25695 -3.502161,3.77693 -1.087768,11.49396 3.596063,11.49396 1.123401,0 2.971292,0.65052 4.106424,1.4456 2.041845,1.43016 8.600752,-0.83739 10.677955,-3.69159 1.731726,-2.37949 3.686215,0.32227 2.246785,3.10582 -1.34349,2.59802 -1.317159,2.80484 0.427576,3.3586 2.605692,0.82702 3.585108,-0.037 4.287781,-3.78257 1.070696,-5.7073 6.025726,-3.31289 6.025726,2.9118 0,2.6827 0.699145,4.17544 3.046875,6.50534 3.617775,3.59032 4.203506,3.44603 2.519072,-0.62057 z m -5.456865,-18.84181 c -2.166011,-9.40553 -2.505649,-12.86709 -1.122212,-11.4375 0.862755,0.89155 4.76313,16.26755 4.76313,18.77715 0,4.04526 -1.902106,0.21085 -3.640918,-7.33965 z m 47.098668,16.42107 c -0.70048,-8.28435 -2.51331,-17.18491 -3.82923,-18.80049 -1.15143,-1.41363 -1.23576,-1.15792 -0.70744,2.14505 0.32991,2.0625 0.98887,4.15078 1.46438,4.64062 0.4755,0.48985 0.86821,2.38829 0.87269,4.21875 0.0136,5.54662 1.14061,13.15198 1.88115,12.6943 0.38292,-0.23666 0.52622,-2.44087 0.31845,-4.89823 z m 9.04225,-0.23574 c 0,-3.08635 -0.41515,-7.41057 -0.92257,-9.60937 -0.50741,-2.19881 -1.14825,-5.15799 -1.42411,-6.57596 -0.27585,-1.41796 -0.91538,-2.57812 -1.42118,-2.57812 -1.28665,0 -1.09123,4.16899 0.50536,10.78125 0.74702,3.09375 1.3648,7.41797 1.37286,9.60937 0.008,2.19141 0.43652,3.98438 0.95214,3.98438 0.52058,0 0.9375,-2.49551 0.9375,-5.61155 z m 95.77497,-3.05098 c -2.57171,-2.57171 -3.21155,2.57491 -0.71769,5.77289 0.82492,1.05783 1.09824,0.69864 1.33913,-1.75984 0.16647,-1.69891 -0.11317,-3.50478 -0.62144,-4.01305 z m -92.28304,-1.86755 c -0.20865,-1.68502 -0.38367,-0.53242 -0.38893,2.56133 -0.006,3.09375 0.16545,4.4724 0.37937,3.06367 0.21391,-1.40874 0.21821,-3.93999 0.01,-5.625 z m 332.96403,4.63685 c -2.85144,-2.73165 -7.73754,-4.98275 -7.17914,-3.30755 0.30789,0.92364 7.64937,5.32195 9.05414,5.42437 0.19922,0.0145 -0.64453,-0.93804 -1.875,-2.11682 z m 7.13779,-1.10896 c -1.54688,-1.26796 -3.41016,-2.32055 -4.14063,-2.3391 -1.6974,-0.0431 -1.01173,0.62179 2.88595,2.79842 4.26196,2.38007 4.57766,2.2645 1.25468,-0.45932 z M 119.0625,224.02062 c 0,-2.8227 -2.18053,-10.27062 -3.00694,-10.27062 -0.94697,0 -0.94267,0.10641 0.29003,7.18508 0.94294,5.41479 2.71691,7.42945 2.71691,3.08554 z m 99.75038,-4.54945 c -0.32694,-2.04459 -0.0808,-5.17936 0.55887,-7.11757 0.69279,-2.09918 0.80459,-3.80226 0.28377,-4.32308 -1.17738,-1.17738 -3.44002,7.95932 -2.70062,10.90529 0.39071,1.55674 0.18851,2.31419 -0.61777,2.31419 -1.62482,0 -3.94658,-3.78292 -3.74002,-6.09375 0.11572,-1.2947 -0.0136,-1.43978 -0.41784,-0.46875 -0.32197,0.77344 -0.96038,1.65219 -1.41868,1.95278 -0.47951,0.31452 -0.44049,1.57959 0.0919,2.97991 0.86373,2.27179 1.81259,2.70542 7.3617,3.36434 0.86028,0.10215 1.02358,-0.85619 0.59868,-3.51336 z M 232.5,218.96158 c 0,-1.49309 -1.70096,-2.88561 -2.52194,-2.06464 -0.77123,0.77123 0.43267,3.41556 1.55502,3.41556 0.53181,0 0.96692,-0.60791 0.96692,-1.35092 z M 70.3125,215.625 c -0.773438,-0.49984 -2.460938,-0.90878 -3.75,-0.90878 -1.855254,0 -2.050653,0.18941 -0.9375,0.90878 0.773437,0.49984 2.460937,0.90878 3.75,0.90878 1.855254,0 2.050653,-0.18941 0.9375,-0.90878 z m 139.79545,-4.45313 c 0.20609,-4.92143 -0.22334,-6.33927 -2.55547,-8.4375 -1.2895,-1.16015 -2.74288,-2.10937 -3.22975,-2.10937 -1.38867,0 -1.03592,2.45785 0.5405,3.76616 0.78414,0.65079 1.88891,3.02276 2.45504,5.27105 1.1596,4.60515 2.62682,5.39916 2.78968,1.50966 z m 46.82565,-1.57001 c -1.7016,-2.0503 -7.51036,-3.7751 -8.70167,-2.58379 -0.66892,0.66892 0.15893,1.28285 2.66444,1.97594 1.99919,0.55302 4.25548,1.40454 5.01398,1.89226 1.84624,1.18715 2.44779,0.43206 1.02325,-1.28441 z M 36.526153,205.38041 c 2.245258,-4.1953 -1.116528,-5.8387 -7.558131,-3.69477 -5.533555,1.84171 -6.597635,3.61507 -2.21579,3.69276 2.044085,0.0362 4.560268,0.42845 5.591518,0.8716 2.763137,1.18736 3.121427,1.11287 4.182403,-0.86959 z M 258.75,198.31757 c 0,-1.81425 -7.9052,-4.09524 -12.31895,-3.55453 -3.75543,0.46005 -10.44382,-4.42881 -12.13137,-8.86738 -1.33769,-3.5184 -2.43335,-2.43686 -1.86271,1.83871 0.43475,3.25733 0.92715,4.04041 2.69848,4.29147 1.19169,0.1689 2.40297,0.92279 2.69173,1.6753 0.92426,2.40857 5.6648,4.11136 11.44593,4.11136 3.08893,0 5.87696,0.42187 6.19564,0.9375 0.88482,1.43167 3.28125,1.11584 3.28125,-0.43243 z m -84.375,-7.59795 c 0,-2.78534 -1.53158,-6.03212 -2.84548,-6.03212 -1.01202,0 -1.25658,6.83544 -0.27952,7.8125 1.44191,1.4419 3.125,0.48301 3.125,-1.78038 z m 70.44509,-1.152 c -4.16916,-3.01467 -6.95782,-6.29007 -8.74449,-10.27075 -1.63815,-3.64977 -4.51163,-5.90085 -3.21321,-2.51724 4.22221,11.00292 7.01495,14.26378 12.29386,14.35461 1.73808,0.0299 1.71352,-0.0845 -0.33616,-1.56662 z M 126.71991,184.8432 c -2.47589,-8.2638 -0.0361,-13.94837 3.90686,-9.10279 l 2.25538,2.77167 3.0481,-3.04811 c 4.12119,-4.12117 3.4821,-4.32958 -11.7115,-3.81919 -2.0625,0.0693 -6.70312,-0.0263 -10.3125,-0.21253 l -6.5625,-0.3385 -0.27987,3.32947 c -0.21554,2.56417 0.38193,4.16222 2.59931,6.95244 1.58355,1.99264 3.13093,4.62603 3.43862,5.85199 0.3077,1.22596 1.03645,2.07212 1.61945,1.88038 1.69467,-0.55739 1.80301,-4.33106 0.1948,-6.7855 -1.51411,-2.31082 -2.01272,-6.07253 -0.80492,-6.07253 1.37029,0 10.57636,9.83257 10.57636,11.2961 0,2.0696 1.08585,2.99305 2.20429,1.87461 0.60571,-0.60571 0.54662,-2.17938 -0.17188,-4.57751 z M 268.125,189.375 c 0,-0.51563 -0.89178,-0.9375 -1.98173,-0.9375 -2.23645,0 -9.26827,-3.68738 -9.26827,-4.86013 0,-0.42068 -0.71174,-0.76487 -1.58165,-0.76487 -1.92127,0 2.77053,5.33898 5.8004,6.60048 2.6474,1.10226 7.03125,1.07858 7.03125,-0.038 z m -50.65799,-1.96001 c -1.3818,-0.50841 -2.85025,-2.12897 -3.50788,-3.87123 -0.82736,-2.19189 -1.41003,-2.71786 -2.16952,-1.95837 -2.49596,2.49596 1.42168,6.75569 6.17914,6.71868 1.52656,-0.0119 1.43332,-0.17711 -0.50174,-0.88908 z m -38.03606,-1.39792 c 0.91884,-2.39446 0.65437,-6.49425 -0.49293,-7.64155 -0.58409,-0.58409 -0.76411,-1.82862 -0.40003,-2.76563 0.75795,-1.95067 5.21201,2.24627 5.21201,4.91113 0,0.74469 0.42187,1.35398 0.9375,1.35398 1.38501,0 1.1385,-4.26666 -0.46875,-8.11335 -1.88899,-4.52098 -1.77328,-6.5505 0.56025,-9.82765 2.65299,-3.72579 4.58516,-2.15571 4.62581,3.75891 0.0277,4.01837 0.13134,4.20412 1.40625,2.51853 1.55934,-2.06162 1.86139,-8.55107 0.43894,-9.43019 -1.2087,-0.74702 -1.22438,-4.21875 -0.019,-4.21875 3.26454,0 5.39576,9.5837 3.61327,16.24823 -1.81097,6.771 -0.10863,8.70251 2.20494,2.50177 3.33531,-8.93914 3.29707,-14.14993 -0.14863,-20.25539 -1.62856,-2.88564 -2.73725,-5.47039 -2.46376,-5.74388 0.27349,-0.27349 0.0561,-1.32167 -0.48321,-2.32929 -1.39444,-2.60552 -0.35298,-3.12724 2.50478,-1.25478 3.16897,2.07641 3.73579,1.40745 1.86797,-2.20454 -1.15049,-2.22474 -2.12907,-2.89962 -4.20449,-2.89962 -3.93477,0 -12.95005,-3.68808 -13.41681,-5.48871 -0.724,-2.79297 0.24184,-3.91967 2.80796,-3.2756 2.11232,0.53015 2.32417,0.38083 1.66482,-1.17349 -2.63873,-6.22041 -2.08959,-7.04157 5.57971,-8.34359 2.04945,-0.34794 4.5807,-1.44857 5.625,-2.44585 1.0443,-0.99729 3.30937,-2.97626 5.03349,-4.39771 9.21055,-7.59368 4.73159,-38.167581 -4.87803,-33.298018 -17.00733,8.618265 -21.40121,14.53458 -21.05681,28.352758 0.26115,10.47803 -0.16515,12.25771 -2.9362,12.25771 -3.1254,0 -4.26516,-16.37862 -1.58599,-22.79082 1.60694,-3.845946 10.19553,-11.641466 15.19494,-13.791847 C 191.29564,84.018244 195,79.48184 195,75.39682 c 0,-4.49241 -1.46156,-4.09527 -8.02766,2.181305 -7.92611,7.576601 -19.84561,12.083749 -17.76964,6.719266 0.28279,-0.730752 1.9548,-2.312154 3.71558,-3.514223 3.65291,-2.493803 5.0863,-5.822478 5.82093,-13.517543 0.65018,-6.810412 -0.10119,-6.794916 -6.14522,0.126735 -5.89418,6.750055 -11.09409,9.192392 -22.38534,10.514139 -8.85506,1.036569 -14.27115,2.889985 -14.27115,4.883664 0,3.76481 -7.88347,7.271539 -15.94764,7.093846 -6.66851,-0.146941 -21.553438,2.484793 -22.931066,4.054325 -13.156083,14.988876 -1.317722,36.350686 17.316206,31.246346 14.37724,-3.9383 27.48517,-0.11798 33.4001,9.73449 9.80723,16.33588 7.64003,34.7807 -4.27438,36.37875 -5.23582,0.70227 -3.99675,1.52517 3.52662,2.34211 13.55938,1.47237 13.97432,1.60265 14.56859,4.57397 0.75064,3.7532 1.91254,3.40988 3.679,-1.08711 2.02839,-5.16378 8.09292,-1.6486 9.66749,5.60356 0.91488,4.21374 1.216,4.76955 2.58411,4.76955 0.73445,0 1.59144,-0.66731 1.90442,-1.48293 z m -30.44804,-60.10055 c -1.2857,-1.52797 -3.76516,-6.12098 -5.50993,-10.2067 -1.74476,-4.08571 -3.94693,-8.30361 -4.89371,-9.37312 -0.94678,-1.0695 -1.43631,-2.22966 -1.08785,-2.57813 1.08802,-1.08801 -1.48564,-0.6921 -3.44164,0.52945 -1.50806,0.94179 -2.2635,0.90701 -3.97166,-0.18288 -1.16015,-0.74023 -4.18765,-2.39308 -6.72778,-3.67299 l -4.6184,-2.327088 -1.35532,2.041218 c -1.38436,2.08494 -4.91415,2.63366 -9.32975,1.45032 -2.26145,-0.60603 -2.94609,-3.1591 -0.84716,-3.1591 0.69422,0 2.48719,-0.601622 3.98438,-1.336941 2.91085,-1.429621 21.79527,-1.524928 24.97475,-0.126046 1.23103,0.541612 1.85354,0.121799 2.55493,-1.722957 0.53797,-1.414987 1.65614,-2.439056 2.66316,-2.439056 1.36889,0 1.65419,-0.556263 1.34962,-2.631452 -0.66041,-4.499601 11.70473,-7.787908 16.39331,-4.359535 3.10168,2.268008 -0.26393,4.489206 -5.80743,3.832712 l -4.71868,-0.558815 4.50757,3.853031 c 2.47918,2.119168 4.30174,4.389437 4.05015,5.04505 -0.25157,0.655612 1.23193,2.708579 3.29668,4.562149 2.30293,2.06738 3.62335,4.00658 3.41586,5.01662 -0.43348,2.11015 -3.31795,1.66691 -6.12964,-0.94191 -2.36379,-2.19325 -2.78468,-1.19577 -0.67331,1.59571 2.96467,3.91963 0.68451,7.38543 -3.59719,5.46769 -5.3772,-2.40841 -7.55075,2.5607 -3.8685,8.844 2.95621,5.04438 2.5721,7.1634 -0.61246,3.37877 z m 1.95459,-18.55043 c 0,-4.91405 -2.62868,-4.22526 -3.46153,0.90701 -0.545,3.35838 -0.48432,3.46018 1.44634,2.42693 1.20464,-0.6447 2.01519,-1.98568 2.01519,-3.33394 z m -9.84375,-7.05359 c 0,-0.687497 -0.52734,-1.425778 -1.17188,-1.640625 -0.69711,-0.232369 -1.17187,0.432291 -1.17187,1.640625 0,1.20833 0.47476,1.87299 1.17187,1.64063 0.64454,-0.21485 1.17188,-0.95313 1.17188,-1.64063 z m 38.38853,15.78322 c -0.75673,-2.38424 -0.66618,-12.48911 0.1351,-15.07703 1.21437,-3.922087 17.41809,-10.042861 19.15344,-7.235006 4.30716,6.969136 0.93749,21.019796 -4.37637,18.248366 -3.28303,-1.71225 -4.08195,-1.75318 -4.08195,-0.20915 0,1.50218 -3.74741,4.85166 -5.625,5.02769 -0.77344,0.0725 -2.10642,0.41943 -2.96218,0.77093 -1.112,0.45675 -1.75197,0.0214 -2.24304,-1.5258 z m 45.42427,69.76365 c -0.0514,-0.90234 -0.39392,-2.69531 -0.76117,-3.98437 l -0.66771,-2.34375 -0.64425,2.50363 c -0.69498,2.70078 -0.0226,5.46512 1.32938,5.46512 0.46046,0 0.79514,-0.73828 0.74375,-1.64063 z m 48.3371,-3.12682 c 3.45234,-1.52714 4.96582,-1.75153 6.91605,-1.02538 4.80896,1.79059 5.7778,1.97705 5.7778,1.11204 0,-1.93483 -7.80086,-3.06833 -13.70184,-1.99095 -3.1532,0.57571 -6.89626,1.04674 -8.31792,1.04674 -2.19133,0 -2.40715,0.21408 -1.41774,1.40625 1.62253,1.95503 5.5353,1.7552 10.74365,-0.5487 z m -3.1971,-4.76425 c 2.74221,-0.95594 2.90797,-1.18454 1.31177,-1.80912 -2.2352,-0.87459 -13.54582,-1.08076 -13.54582,-0.24691 0,2.76979 6.87308,3.92487 12.23405,2.05603 z m -54.16452,-1.55651 c 1.5042,2.15982 1.52012,2.14058 1.5688,-1.89503 0.0551,-4.56801 -3.96986,-9.51676 -7.74024,-9.51676 -1.73184,0 -1.55246,0.42362 1.50539,3.55515 3.54673,3.63217 4.19559,4.88235 2.53402,4.88235 -0.51563,0 -0.9375,-0.58361 -0.9375,-1.29691 0,-1.25547 -3.69114,-2.82445 -4.57213,-1.94346 -0.23939,0.23939 0.48046,1.41 1.59968,2.60136 1.11923,1.19136 2.0499,2.98267 2.06818,3.98068 0.0295,1.61417 0.1669,1.5736 1.2437,-0.36738 l 1.21048,-2.18196 1.51962,2.18196 z m 4.41945,-12.64198 c -1.59391,-2.32615 -2.84914,-3.14481 -4.82191,-3.14481 -2.96245,0 -3.57011,1.30263 -1.02645,2.20037 2.7692,0.97734 5.85599,4.27237 5.92283,6.32242 0.0616,1.88896 0.093,1.88476 1.07192,-0.14361 0.82056,-1.70021 0.60696,-2.67553 -1.14639,-5.23437 z m 10.48903,1.41291 c -1.447,-4.82965 -4.83827,-8.1503 -4.88282,-4.78115 -0.0292,2.20931 -0.0575,2.21695 -1.40353,0.37968 -3.12991,-4.27208 -5.31094,-5.91801 -8.64232,-6.52202 -1.93495,-0.35082 -4.24699,-1.55813 -5.13787,-2.68292 -1.14994,-1.45187 -1.61605,-1.63715 -1.60691,-0.63881 0.0172,1.88144 3.60261,6.0316 6.50794,7.53307 3.74547,1.93566 8.43744,5.95759 8.43747,7.23255 2e-5,0.64454 0.4219,1.17188 0.93753,1.17188 0.51562,0 0.9375,-0.84375 0.9375,-1.875 0,-2.78327 1.75257,-2.27071 2.40419,0.70312 1.07158,4.89045 1.32483,5.31786 2.47146,4.17123 0.79389,-0.79389 0.78814,-1.98545 -0.0227,-4.69163 z m -108.66082,-0.70443 c -1.5844,-3.32254 -3.30098,-3.81531 -3.82795,-1.09887 -0.34454,1.77604 3.25098,5.68041 4.51286,4.90053 0.49792,-0.30773 0.20445,-1.93666 -0.68491,-3.80166 z m 17.55781,2.50453 c 0,-1.61455 -11.24417,-7.60369 -14.28171,-7.60706 -1.37382,-0.002 2.41463,6.42022 4.33738,7.35222 2.45453,1.18977 9.94433,1.38172 9.94433,0.25484 z M 37.315516,163.4028 c 0.385251,-2.60084 -1.837723,-4.60837 -5.959062,-5.38154 -4.983698,-0.93494 -5.129826,0.0918 -0.612758,4.30522 4.228657,3.94445 6.10154,4.25119 6.57182,1.07632 z m 73.581124,0.6597 c -0.54427,-2.08131 -3.08414,-2.59601 -3.08414,-0.625 0,1.56373 0.9034,2.5 2.41223,2.5 0.70067,0 0.96751,-0.74462 0.67191,-1.875 z m 146.671,0 c -3.96035,-2.12262 -4.82475,-2.31421 -3.93329,-0.8718 0.70776,1.14517 3.97557,2.5993 6.03927,2.68737 0.7658,0.0327 -0.18189,-0.78432 -2.10598,-1.81557 z m -140.98687,-3.94995 c -0.59415,-3.66128 -2.83984,-5.43162 -3.78051,-2.98028 -0.75074,1.95638 2.33514,8.41983 3.47547,7.2795 0.47449,-0.47449 0.61175,-2.40914 0.30504,-4.29922 z m 27.64345,1.15223 c -1.20613,-1.00507 -2.65493,-1.84143 -3.21954,-1.85859 -0.56462,-0.0172 -1.80781,-0.89445 -2.76266,-1.94954 -4.05972,-4.48593 -17.93525,-9.33165 -26.72084,-9.33165 -4.92766,0 -18.701469,-3.01049 -24.80243,-5.42098 -5.748921,-2.2714 -9.560953,-5.46048 -14.077725,-11.77718 -11.029484,-15.42473 -14.650707,-19.38753 -14.482629,-15.84871 0.252444,5.31514 6.146243,22.09728 8.512513,24.23873 0.971625,0.87931 1.766591,2.10079 1.766591,2.71439 0,4.57796 12.910534,8.89402 26.792306,8.9568 24.097224,0.10898 37.407514,3.30857 47.265714,11.36195 1.80223,1.47227 3.42187,2.24156 3.59922,1.70952 0.17735,-0.53203 -0.66439,-1.78967 -1.87052,-2.79474 z M 256.875,158.93852 c 0,-0.91347 -6.77129,-12.7069 -7.58423,-13.20933 -1.38651,-0.85691 -0.97262,2.06717 0.461,3.25697 0.72284,0.59991 1.59517,2.2336 1.93849,3.63042 1.0086,4.10354 5.18474,9.19566 5.18474,6.32194 z m -23.70486,-7.05072 c 1.14202,-0.007 2.52795,-0.85655 3.07986,-1.8878 0.92422,-1.72693 0.71296,-1.875 -2.67535,-1.875 -2.92824,0 -3.65225,0.33473 -3.54861,1.64062 0.0817,1.02942 -0.481,1.59212 -1.51042,1.51042 -0.90234,-0.0716 -1.64062,0.294 -1.64062,0.81247 0,0.52008 0.94561,0.68926 2.10937,0.37739 1.16016,-0.31092 3.04376,-0.57106 4.18577,-0.5781 z m 9.64236,-2.64612 c 0,-0.41707 -0.6194,-1.57723 -1.37644,-2.57812 -1.4052,-1.85784 -1.89191,-0.81733 -0.86701,1.85351 0.5878,1.53177 2.24345,2.06653 2.24345,0.72461 z m -38.4375,-7.45366 c 0,-1.70695 -3.52075,-4.51727 -4.46999,-3.56803 -0.46445,0.46444 3.32949,5.21751 4.16466,5.21751 0.16793,0 0.30533,-0.74227 0.30533,-1.64948 z m 9.79888,-0.92865 c -0.39281,-0.90234 -1.01588,-4.56652 -1.38459,-8.14261 -0.52656,-5.10701 -1.12111,-6.86697 -2.7712,-8.20313 -4.12804,-3.34268 -5.41865,-0.7661 -1.47297,2.94069 2.26611,2.1289 2.65005,3.23751 3.83085,11.0613 0.33073,2.19141 1.03127,3.98438 1.55674,3.98438 0.55699,0 0.65755,-0.68416 0.24117,-1.64063 z m -97.60242,-5.27938 c 0.95456,-4.03633 0.56982,-4.73923 -2.12581,-3.88367 -1.44599,0.45895 -1.94565,1.40384 -1.94565,3.67935 0,5.59143 2.76462,5.73016 4.07146,0.20432 z m -12.8238,-1.92322 c -0.3101,-0.8081 -1.20986,-1.46927 -1.99949,-1.46927 -1.70693,0 -1.767798,0.44018 -0.41132,2.97478 1.19443,2.23181 3.33258,0.89658 2.41081,-1.50551 z m 95.36918,1.88447 c -0.54512,-1.42058 -3.14627,-2.76181 -3.89809,-2.00999 -0.99816,0.99816 0.78003,3.34375 2.5349,3.34375 1.23622,0 1.70064,-0.4544 1.36319,-1.33376 z m 8.07066,-1.38613 c 0,-1.04327 -1.36068,-2.58523 -3.28125,-3.71839 -3.95621,-2.33422 -4.07376,-1.95478 -0.70313,2.26959 2.91324,3.65112 3.98438,4.04061 3.98438,1.4488 z m 10.46747,-7.36746 c -0.59579,-2.65167 -0.53569,-4.16258 0.19518,-4.90613 0.78659,-0.80025 0.38482,-1.65593 -1.5743,-3.35298 -4.22878,-3.6631 -7.11874,-2.88982 -3.5216,0.94229 0.99922,1.06448 2.32242,4.0448 2.94045,6.62292 0.61803,2.57813 1.34234,5.32031 1.60958,6.09375 0.97199,2.8131 1.24645,-1.41309 0.35069,-5.39985 z m 21.73168,-3.5064 c 1.85109,-0.77344 3.59012,-1.40625 3.86449,-1.40625 0.27438,0 0.49886,0.63281 0.49886,1.40625 0,2.01705 2.57031,1.73554 3.71702,-0.40712 2.17046,-4.05555 1.37914,-4.7631 -4.62524,-4.13552 -6.84017,0.71495 -9.81134,-1.73056 -12.51213,-10.29843 -1.59337,-5.05476 -2.97955,-7.04028 -4.11937,-5.90046 -0.29699,0.29698 -0.1089,1.07751 0.41795,1.7345 0.52686,0.657 1.65051,3.61021 2.497,6.56269 0.93914,3.2756 2.26231,5.75522 3.39443,6.36111 2.41994,1.29512 2.35501,2.67756 -0.16963,3.61148 l -2.02497,0.74909 2.23357,1.56446 c 2.7158,1.90222 2.65724,1.90086 6.82802,0.1582 z m 191.16741,210.01714 c -3.667,-1.19879 -15.24156,-10.26949 -15.24156,-11.94445 0,-2.22307 12.46296,2.84478 13.98365,5.68622 1.50748,2.81677 7.77962,4.89995 12.71584,4.22337 3.53534,-0.48458 4.23801,-0.3266 4.23801,0.95279 0,0.87032 -0.75439,1.53368 -1.74415,1.53368 -0.95928,0 -3.596,0.19093 -5.85938,0.42429 -2.26337,0.23336 -5.90495,-0.1608 -8.09241,-0.8759 z"
     id="path4210"
     inkscape:connector-curvature="0" />
</svg>
